<?xml version="1.0" encoding="UTF-8"?>
<svg version="1.1" xmlns="http://www.w3.org/2000/svg" width="655" height="282">
<path d="M0 0 C216.15 0 432.3 0 655 0 C655 93.06 655 186.12 655 282 C438.85 282 222.7 282 0 282 C0 188.94 0 95.88 0 0 Z " fill="#FEFDFE" transform="translate(0,0)"/>
<path d="M0 0 C3.3125 -0.25 3.3125 -0.25 7 0 C8.02931401 1.31083579 9.02375508 2.64917669 10 4 C12.91290917 5.60244131 15.98442735 6.81346192 19.0625 8.0625 C20.70263139 8.73259259 22.33953493 9.41065566 23.97265625 10.09765625 C24.69718994 10.39164307 25.42172363 10.68562988 26.16821289 10.98852539 C28 12 28 12 30 15 C32.05925139 15.72382467 32.05925139 15.72382467 34 16 C34 16.66 34 17.32 34 18 C35.7325 18.12375 35.7325 18.12375 37.5 18.25 C42.22127498 18.81486683 45.9106739 20.66168853 50 23 C50 23.66 50 24.32 50 25 C50.928125 25.268125 51.85625 25.53625 52.8125 25.8125 C56 27 56 27 57.27734375 28.35546875 C59.75296118 30.71881328 62.69961266 32.02628966 65.75 33.5 C66.64332031 33.94279297 66.64332031 33.94279297 67.5546875 34.39453125 C71.64697181 36.40524237 75.79718852 38.23266389 80 40 C80 40.66 80 41.32 80 42 C80.99 42 81.98 42 83 42 C83 42.66 83 43.32 83 44 C83.70125 44.12375 84.4025 44.2475 85.125 44.375 C88.19635318 45.04268547 91.0674358 45.86696383 94 47 C94.33 47.66 94.66 48.32 95 49 C97.18256879 49.86015446 99.39756966 50.63877565 101.625 51.375 C106.8035166 53.1361519 111.33835762 55.14593324 116 58 C118.30943568 59.072238 120.64162329 60.03739726 123 61 C123 61.99 123 62.98 123 64 C123.61875 64.144375 124.2375 64.28875 124.875 64.4375 C127 65 127 65 129 66 C129 66.66 129 67.32 129 68 C129.99 68 130.98 68 132 68 C132 68.99 132 69.98 132 71 C130.35546875 72.5703125 130.35546875 72.5703125 128.1875 74.125 C127.47980469 74.64320312 126.77210938 75.16140625 126.04296875 75.6953125 C124 77 124 77 121 78 C121 78.66 121 79.32 121 80 C120.34 80 119.68 80 119 80 C119 80.66 119 81.32 119 82 C118.38125 82.0825 117.7625 82.165 117.125 82.25 C114.81562433 82.81258459 114.81562433 82.81258459 113.75 85.0625 C113.37875 86.0215625 113.37875 86.0215625 113 87 C112.34 87 111.68 87 111 87 C110.938125 87.598125 110.87625 88.19625 110.8125 88.8125 C109.67437574 91.8766807 107.78754527 92.40711699 105 94 C103.2639974 96.00307993 101.99521146 98.00843695 100.6875 100.3125 C98.48487588 103.82038285 95.98474828 107.11502046 93 110 C92.34 110 91.68 110 91 110 C90.814375 110.9590625 90.814375 110.9590625 90.625 111.9375 C90.41875 112.618125 90.2125 113.29875 90 114 C89.01 114.495 89.01 114.495 88 115 C88.1440088 116.66682531 88.29031844 118.33345185 88.4375 120 C88.51871094 120.928125 88.59992188 121.85625 88.68359375 122.8125 C88.91262075 125.11973499 89.19564961 127.4218201 89.51171875 129.71875 C91.3782301 144.55232562 90.48639961 158.09512492 85 172 C84.67 172.99 84.34 173.98 84 175 C83.34 175 82.68 175 82 175 C81.773125 176.093125 81.54625 177.18625 81.3125 178.3125 C80 182 80 182 77.375 183.9375 C76.59125 184.288125 75.8075 184.63875 75 185 C77.64150943 175.56603774 77.64150943 175.56603774 79 172 C79.66 171.67 80.32 171.34 81 171 C81.65232141 168.6833206 81.65232141 168.6833206 82.0625 166 C82.90566038 161.09433962 82.90566038 161.09433962 84 160 C84.15806531 158.07521187 84.251135 156.1450079 84.31640625 154.21484375 C84.35830078 153.04501953 84.40019531 151.87519531 84.44335938 150.66992188 C84.48267578 149.43822266 84.52199219 148.20652344 84.5625 146.9375 C84.60568359 145.70193359 84.64886719 144.46636719 84.69335938 143.19335938 C84.79984198 140.12902665 84.90185424 137.06460927 85 134 C84.34 134 83.68 134 83 134 C82.9175 132.845 82.835 131.69 82.75 130.5 C82.26023623 126.4896155 80.98058746 123.47064275 79.03515625 119.95703125 C78 118 78 118 77.06640625 115.53125 C73.98873894 108.22601771 66.24837872 98.3955668 58.9375 95.05859375 C56.84443815 94.41482732 56.84443815 94.41482732 54 94 C54 93.34 54 92.68 54 92 C53.030625 91.731875 52.06125 91.46375 51.0625 91.1875 C50.051875 90.795625 49.04125 90.40375 48 90 C47.67 89.01 47.34 88.02 47 87 C45.0509375 86.814375 45.0509375 86.814375 43.0625 86.625 C39.97137282 86.33060694 37.08717448 85.76785579 34.08789062 85 C28.31927424 83.709991 22.63720745 83.64831185 16.74609375 83.5859375 C15.60463394 83.56657135 14.46317413 83.5472052 13.28712463 83.5272522 C9.67065715 83.46786402 6.05415714 83.42123465 2.4375 83.375 C-0.02670596 83.3367827 -2.4908991 83.29772883 -4.95507812 83.2578125 C-10.96993756 83.16219628 -16.98487536 83.07703151 -23 83 C-23.33 81.68 -23.66 80.36 -24 79 C-24.66 79 -25.32 79 -26 79 C-26 111.01 -26 143.02 -26 176 C-26.99 176.33 -27.98 176.66 -29 177 C-29.37125 176.154375 -29.7425 175.30875 -30.125 174.4375 C-31.91934245 171.14787218 -33.80211789 168.80500241 -36.26953125 166.0390625 C-39.02208658 162.79564516 -41.42975307 159.31033096 -43.90234375 155.8515625 C-46.60490218 152.1776935 -49.49696475 148.67973072 -52.43359375 145.19140625 C-53.98168665 143.02562043 -54.44273434 141.55227672 -55 139 C-55.598125 138.608125 -56.19625 138.21625 -56.8125 137.8125 C-59.61277549 135.49227173 -60.36253277 133.25041671 -61.734375 129.9296875 C-63.34925558 126.191538 -65.16638607 122.57225585 -67 118.9375 C-67.33225586 118.2772583 -67.66451172 117.6170166 -68.00683594 116.93676758 C-68.33458008 116.28603271 -68.66232422 115.63529785 -69 114.96484375 C-69.48726562 113.99200439 -69.48726562 113.99200439 -69.984375 112.99951172 C-70.6884441 111.61337569 -71.40835161 110.23521478 -72.140625 108.86376953 C-72.68976563 107.81938721 -72.68976563 107.81938721 -73.25 106.75390625 C-73.58515625 106.12943604 -73.9203125 105.50496582 -74.265625 104.86157227 C-75 103 -75 103 -75 99 C-75.66 99 -76.32 99 -77 99 C-77.6789678 97.29651829 -78.34261957 95.58692821 -79 93.875 C-79.556875 92.44800781 -79.556875 92.44800781 -80.125 90.9921875 C-81 88 -81 88 -81 82 C-68.46 81.67 -55.92 81.34 -43 81 C-43.66 78.03 -44.32 75.06 -45 72 C-45.36980534 69.42163497 -45.70423952 66.83790416 -46 64.25 C-46.72044078 58.09205067 -47.60040699 51.98220474 -48.6328125 45.8671875 C-49.01526111 42.88083343 -49.06246821 40.00739818 -49 37 C-47.18706911 37.14037521 -45.3746557 37.28744889 -43.5625 37.4375 C-42.55316406 37.51871094 -41.54382813 37.59992188 -40.50390625 37.68359375 C-38 38 -38 38 -37 39 C-35.61135566 39.30556226 -34.21318736 39.56800808 -32.8125 39.8125 C-28.394671 40.64282367 -24.17439512 41.81528114 -19.875 43.125 C-14.66195607 44.66159592 -10.40515743 45.43241259 -5 45 C-4.21983322 39.589991 -3.86250147 34.28844506 -3.70874023 28.82641602 C-3.42631112 18.87223073 -2.65630509 9.63954741 0 0 Z " fill="#5A1966" transform="translate(142,38)"/>
<path d="M0 0 C7.19606547 0.32709389 12.72823153 3.68989997 19 7 C20.56071819 7.75370086 22.12294211 8.50430244 23.6875 9.25 C27 11 27 11 28 13 C30.02463255 13.65213292 30.02463255 13.65213292 32 14 C32 14.66 32 15.32 32 16 C33.7325 16.12375 33.7325 16.12375 35.5 16.25 C40.22127498 16.81486683 43.9106739 18.66168853 48 21 C48 21.66 48 22.32 48 23 C48.928125 23.268125 49.85625 23.53625 50.8125 23.8125 C54 25 54 25 55.27734375 26.35546875 C57.75296118 28.71881328 60.69961266 30.02628966 63.75 31.5 C64.64332031 31.94279297 64.64332031 31.94279297 65.5546875 32.39453125 C69.64697181 34.40524237 73.79718852 36.23266389 78 38 C78 38.66 78 39.32 78 40 C78.99 40 79.98 40 81 40 C81 40.66 81 41.32 81 42 C82.051875 42.185625 82.051875 42.185625 83.125 42.375 C86.19635318 43.04268547 89.0674358 43.86696383 92 45 C92.33 45.66 92.66 46.32 93 47 C95.18256879 47.86015446 97.39756966 48.63877565 99.625 49.375 C104.8035166 51.1361519 109.33835762 53.14593324 114 56 C116.30943568 57.072238 118.64162329 58.03739726 121 59 C121 59.99 121 60.98 121 62 C121.61875 62.144375 122.2375 62.28875 122.875 62.4375 C125 63 125 63 127 64 C127 64.66 127 65.32 127 66 C127.99 66 128.98 66 130 66 C130 66.99 130 67.98 130 69 C128.35546875 70.5703125 128.35546875 70.5703125 126.1875 72.125 C125.47980469 72.64320312 124.77210938 73.16140625 124.04296875 73.6953125 C122 75 122 75 119 76 C119 76.66 119 77.32 119 78 C118.34 78 117.68 78 117 78 C117 78.66 117 79.32 117 80 C116.38125 80.0825 115.7625 80.165 115.125 80.25 C112.81562433 80.81258459 112.81562433 80.81258459 111.75 83.0625 C111.37875 84.0215625 111.37875 84.0215625 111 85 C110.34 85 109.68 85 109 85 C108.938125 85.598125 108.87625 86.19625 108.8125 86.8125 C107.67437574 89.8766807 105.78754527 90.40711699 103 92 C101.2639974 94.00307993 99.99521146 96.00843695 98.6875 98.3125 C97.25835402 100.58854729 95.8001701 102.65496629 94.125 104.75 C93.65320313 105.34296875 93.18140625 105.9359375 92.6953125 106.546875 C90.54718204 108.38812968 88.7683688 108.64339656 86 109 C85.41992188 108.20335937 84.83984375 107.40671875 84.2421875 106.5859375 C79.31564214 99.75108998 79.31564214 99.75108998 73.5 93.6875 C70.4055487 90.36096485 70 88.50399299 70 84 C70.98156153 79.91016031 72.50224353 76.3969488 75 73 C75.99 73 76.98 73 78 73 C78.185625 71.948125 78.185625 71.948125 78.375 70.875 C79.03838345 67.82343613 79.97211955 64.94659062 81 62 C79.824375 62.04125 78.64875 62.0825 77.4375 62.125 C74.55460835 62.22615409 72.51595379 61.8612095 69.703125 61.0546875 C64.662941 59.61919206 59.62223174 59.14742709 54.42578125 58.5625 C51.32573228 58.05348398 49.72476463 57.36756248 47 56 C44.26704176 55.43708378 41.56458611 54.93956931 38.8125 54.5 C37.26667762 54.24106828 35.72110037 53.98066849 34.17578125 53.71875 C33.44311035 53.595 32.71043945 53.47125 31.95556641 53.34375 C29.78583628 52.96235424 27.64366877 52.50737722 25.5 52 C22.63333973 51.32283616 19.76212364 50.77577328 16.859375 50.28125 C15.72532227 50.08789062 15.72532227 50.08789062 14.56835938 49.890625 C13.05487216 49.63561452 11.54056775 49.38539462 10.02539062 49.140625 C6.12143577 48.48341759 2.60663699 47.64712556 -1 46 C-1 45.34 -1 44.68 -1 44 C-2.32 44 -3.64 44 -5 44 C-4.8612922 40.06221489 -4.71281508 36.12485777 -4.5625 32.1875 C-4.50352539 30.50817383 -4.50352539 30.50817383 -4.44335938 28.79492188 C-4.40146484 27.72177734 -4.35957031 26.64863281 -4.31640625 25.54296875 C-4.27974854 24.55321045 -4.24309082 23.56345215 -4.20532227 22.54370117 C-4 20 -4 20 -3 17 C-2.82512294 15.23179863 -2.68264566 13.46026143 -2.5625 11.6875 C-2.21931289 7.51390195 -1.58582543 3.91170272 0 0 Z " fill="#371648" transform="translate(144,40)"/>
<path d="M0 0 C9.57 0.33 19.14 0.66 29 1 C29 1.66 29 2.32 29 3 C29.804375 2.896875 30.60875 2.79375 31.4375 2.6875 C37.30680232 3.20235108 41.70699438 6.31041691 46.375 9.75 C49.05727595 13.46392055 51 18.36724152 51 23 C51.99 23 52.98 23 54 23 C57.36311965 28.38984175 57.39515505 32.80016288 57.25 38.9375 C57.24484375 39.80568359 57.2396875 40.67386719 57.234375 41.56835938 C57.13820922 49.52006705 56.36145539 56.1417401 52.6875 63.3125 C52.39166016 63.93189453 52.09582031 64.55128906 51.79101562 65.18945312 C50.41491983 67.92678406 49.38490686 69.75530439 46.76953125 71.41796875 C46.18558594 71.61003906 45.60164063 71.80210937 45 72 C45 72.66 45 73.32 45 74 C45.99 74.495 45.99 74.495 47 75 C46.67 76.65 46.34 78.3 46 80 C43.525 80.495 43.525 80.495 41 81 C41 81.66 41 82.32 41 83 C27.55125285 88.74031891 27.55125285 88.74031891 20 88 C20 88.66 20 89.32 20 90 C13.4 90 6.8 90 0 90 C0 60.3 0 30.6 0 0 Z " fill="#5A1965" transform="translate(142,141)"/>
<path d="M0 0 C1.24910156 -0.01836914 1.24910156 -0.01836914 2.5234375 -0.03710938 C3.71839844 -0.04000977 3.71839844 -0.04000977 4.9375 -0.04296875 C6.03384766 -0.04913208 6.03384766 -0.04913208 7.15234375 -0.05541992 C9 0.1875 9 0.1875 11 2.1875 C11.22705078 5.07666016 11.22705078 5.07666016 11.1953125 8.7265625 C11.19031738 9.89912598 11.18532227 11.07168945 11.18017578 12.27978516 C11.16196777 13.77558105 11.14375977 15.27137695 11.125 16.8125 C11.08375 21.55625 11.0425 26.3 11 31.1875 C20.57 31.1875 30.14 31.1875 40 31.1875 C39.96043462 21.733614 39.96043462 21.733614 39.90991211 12.27978516 C39.90741455 11.10722168 39.90491699 9.9346582 39.90234375 8.7265625 C39.89710693 7.52209473 39.89187012 6.31762695 39.88647461 5.07666016 C40 2.1875 40 2.1875 41 0.1875 C47.6 0.1875 54.2 0.1875 61 0.1875 C61.02255102 10.73131693 61.04091508 21.27511797 61.05181217 31.81895351 C61.057041 36.71435374 61.06413864 41.60973668 61.07543945 46.50512695 C61.08626834 51.22537978 61.09227684 55.94561592 61.09487724 60.6658802 C61.09673149 62.47088954 61.10035209 64.27589792 61.10573006 66.08090019 C61.11294052 68.60009644 61.11399094 71.1192229 61.11352539 73.63842773 C61.11712067 74.39224228 61.12071594 75.14605682 61.12442017 75.92271423 C61.11405216 81.07344784 61.11405216 81.07344784 60 82.1875 C58.59651265 82.28610131 57.18819523 82.31828937 55.78125 82.3203125 C54.50701172 82.32224609 54.50701172 82.32224609 53.20703125 82.32421875 C52.31371094 82.32035156 51.42039062 82.31648438 50.5 82.3125 C49.60667969 82.31636719 48.71335937 82.32023437 47.79296875 82.32421875 C46.94347656 82.32292969 46.09398437 82.32164062 45.21875 82.3203125 C44.43435547 82.31918457 43.64996094 82.31805664 42.84179688 82.31689453 C41 82.1875 41 82.1875 40 81.1875 C39.91209025 78.89598583 39.89305962 76.60177476 39.90234375 74.30859375 C39.9037587 73.6219313 39.90517365 72.93526886 39.90663147 72.22779846 C39.91224521 70.02682199 39.92479993 67.82594591 39.9375 65.625 C39.94251324 64.13606917 39.94707645 62.64713676 39.95117188 61.15820312 C39.96136979 57.50123195 39.98094221 53.84447883 40 50.1875 C30.43 50.1875 20.86 50.1875 11 50.1875 C11 60.7475 11 71.3075 11 82.1875 C6.111875 82.249375 6.111875 82.249375 1.125 82.3125 C0.09906738 82.33070801 -0.92686523 82.34891602 -1.98388672 82.36767578 C-2.79100098 82.3726709 -3.59811523 82.37766602 -4.4296875 82.3828125 C-5.25710449 82.39328613 -6.08452148 82.40375977 -6.93701172 82.41455078 C-9 82.1875 -9 82.1875 -11 80.1875 C-11.1878075 77.65773465 -11.25191906 75.23842595 -11.22705078 72.70849609 C-11.22734283 71.93767197 -11.22763489 71.16684784 -11.22793579 70.37266541 C-11.22653974 67.81864255 -11.21096579 65.26490954 -11.1953125 62.7109375 C-11.19158334 60.94259806 -11.18873591 59.17425655 -11.18673706 57.40591431 C-11.17909293 52.74680905 -11.15943778 48.08782806 -11.1373291 43.42877197 C-11.11688744 38.67649008 -11.10773894 33.92418816 -11.09765625 29.171875 C-11.07619259 19.84369534 -11.04204728 10.51560799 -11 1.1875 C-7.58173253 -0.52163373 -3.76645237 0.00291521 0 0 Z " fill="#5B1A67" transform="translate(513,153.8125)"/>
<path d="M0 0 C3.74973906 -0.11622939 7.49901464 -0.1872595 11.25 -0.25 C12.31347656 -0.28351563 13.37695312 -0.31703125 14.47265625 -0.3515625 C15.49746094 -0.36445313 16.52226562 -0.37734375 17.578125 -0.390625 C18.99206543 -0.4220459 18.99206543 -0.4220459 20.43457031 -0.45410156 C23.75717596 0.1340262 24.90760838 1.41542183 27 4 C27.72265625 6.11328125 27.72265625 6.11328125 28.0625 8.3125 C28.70983419 11.75564822 29.60863216 14.72078459 31.08203125 17.921875 C32.32786589 20.74223257 33.40448767 23.61811172 34.5 26.5 C35.86252201 30.0812512 37.2432198 33.62944695 38.8125 37.125 C40 40 40 40 40 43 C40.66 43 41.32 43 42 43 C42.45439453 44.59714844 42.45439453 44.59714844 42.91796875 46.2265625 C47.08080905 61.57920343 47.08080905 61.57920343 53.13671875 76.21484375 C54.26357282 78.54503521 54.14180683 80.44747702 54 83 C51.703463 84.1482685 50.41686833 84.11561175 47.8671875 84.09765625 C47.06152344 84.09443359 46.25585938 84.09121094 45.42578125 84.08789062 C44.16314453 84.07532227 44.16314453 84.07532227 42.875 84.0625 C42.02550781 84.05798828 41.17601562 84.05347656 40.30078125 84.04882812 C38.20049091 84.03702874 36.1002367 84.01909306 34 84 C33.34092582 82.8197974 32.6985052 81.63029266 32.0625 80.4375 C31.52302734 79.44556641 31.52302734 79.44556641 30.97265625 78.43359375 C30 76 30 76 29 69 C13.16 69.495 13.16 69.495 -3 70 C-4.98 73.96 -6.96 77.92 -9 82 C-10.8855253 83.8855253 -13.57768831 83.13246689 -16.08203125 83.13671875 C-17.27892578 83.13091797 -17.27892578 83.13091797 -18.5 83.125 C-19.29792969 83.12886719 -20.09585937 83.13273437 -20.91796875 83.13671875 C-26.87339233 83.12660767 -26.87339233 83.12660767 -28 82 C-27.91062197 80.47480724 -27.75462854 78.95318071 -27.5625 77.4375 C-27.46066406 76.61121094 -27.35882813 75.78492188 -27.25390625 74.93359375 C-27.17011719 74.29550781 -27.08632813 73.65742188 -27 73 C-25.515 72.505 -25.515 72.505 -24 72 C-23.87496094 71.32710938 -23.74992187 70.65421875 -23.62109375 69.9609375 C-22.89045876 66.47778454 -21.98623255 63.06198226 -21.0625 59.625 C-20.72347656 58.35914063 -20.38445312 57.09328125 -20.03515625 55.7890625 C-17.48571429 46.45714286 -17.48571429 46.45714286 -16 42 C-15.34 42 -14.68 42 -14 42 C-13.87496094 41.30777344 -13.74992187 40.61554688 -13.62109375 39.90234375 C-12.93996212 36.71944563 -12.03227487 33.66943912 -11.0625 30.5625 C-10.72347656 29.47066406 -10.38445312 28.37882812 -10.03515625 27.25390625 C-9.05076879 24.15958641 -8.035171 21.07766086 -7 18 C-6.01 18 -5.02 18 -4 18 C-3.896875 16.88625 -3.79375 15.7725 -3.6875 14.625 C-3.2688465 11.18461049 -2.4807713 8.02093883 -1.45703125 4.7109375 C-1.18479736 3.8245459 -0.91256348 2.9381543 -0.63208008 2.02490234 C-0.42349365 1.35668457 -0.21490723 0.6884668 0 0 Z " fill="#5F206A" transform="translate(363,153)"/>
<path d="M0 0 C0 0.66 0 1.32 0 2 C0.825 2.0825 1.65 2.165 2.5 2.25 C9.90278137 3.83631029 14.96831643 6.9814987 19.1875 13.25 C21.21117082 16.88024919 21.41619805 19.83801952 21 24 C20 25 20 25 18.05053711 25.11352539 C17.2178833 25.10828857 16.38522949 25.10305176 15.52734375 25.09765625 C14.62822266 25.09443359 13.72910156 25.09121094 12.80273438 25.08789062 C11.85720703 25.07951172 10.91167969 25.07113281 9.9375 25.0625 C8.98810547 25.05798828 8.03871094 25.05347656 7.06054688 25.04882812 C4.70696935 25.0370011 2.35351523 25.02052025 0 25 C-0.66 23.68 -1.32 22.36 -2 21 C-2.66 21 -3.32 21 -4 21 C-4.66 20.01 -5.32 19.02 -6 18 C-9.02224433 17.59597775 -9.02224433 17.59597775 -12.4375 17.75 C-13.59121094 17.76546875 -14.74492187 17.7809375 -15.93359375 17.796875 C-19.03998975 17.87286828 -19.03998975 17.87286828 -22 19 C-22.12375 20.2375 -22.2475 21.475 -22.375 22.75 C-22.44460938 23.44609375 -22.51421875 24.1421875 -22.5859375 24.859375 C-22.13727216 27.29444597 -22.13727216 27.29444597 -19.46484375 29.1328125 C-15.77552147 31.12097039 -12.24398212 32.2291875 -8.1875 33.125 C-7.12583618 33.37745483 -7.12583618 33.37745483 -6.04272461 33.63500977 C-2.39681182 34.49432285 1.25690804 35.24169905 4.9375 35.9375 C12.64317098 37.6318636 18.52675265 41.56970693 23 48 C24.2062252 51.61867559 24.10816918 54.92506251 24.0625 58.6875 C24.05798828 59.38939453 24.05347656 60.09128906 24.04882812 60.81445312 C24.03706927 62.54300538 24.01913454 64.27151365 24 66 C23.34 66 22.68 66 22 66 C21.896875 66.721875 21.79375 67.44375 21.6875 68.1875 C20.64521674 72.45138604 19.25741982 75.16172012 15.5625 77.625 C14.716875 78.07875 13.87125 78.5325 13 79 C12.40574219 79.50917969 11.81148438 80.01835937 11.19921875 80.54296875 C8.46081742 82.35722043 6.50779693 82.49358352 3.25 82.6875 C2.26515625 82.75324219 1.2803125 82.81898438 0.265625 82.88671875 C-0.85585938 82.94279297 -0.85585938 82.94279297 -2 83 C-2 83.66 -2 84.32 -2 85 C-4.83339965 85.02724423 -7.66653117 85.04695589 -10.5 85.0625 C-11.29148437 85.07087891 -12.08296875 85.07925781 -12.8984375 85.08789062 C-20.52124694 85.11913165 -27.23613767 84.90800934 -34 81 C-35.2375 80.4121875 -35.2375 80.4121875 -36.5 79.8125 C-41.18042635 76.4191909 -44.7172648 71.30149251 -47 66 C-47.32142857 60.64285714 -47.32142857 60.64285714 -46 58 C-42.75068073 57.82544979 -39.50256552 57.71908247 -36.25 57.625 C-35.32960938 57.57472656 -34.40921875 57.52445313 -33.4609375 57.47265625 C-30.84552708 57.4157995 -28.55470996 57.42786326 -26 58 C-23.546875 60.9609375 -23.546875 60.9609375 -22 64 C-19.20127394 64.93290869 -17.48011055 65.12859447 -14.5859375 65.1328125 C-13.32136719 65.13474609 -13.32136719 65.13474609 -12.03125 65.13671875 C-11.1546875 65.13285156 -10.278125 65.12898438 -9.375 65.125 C-8.49070312 65.12886719 -7.60640625 65.13273437 -6.6953125 65.13671875 C-5.85484375 65.13542969 -5.014375 65.13414062 -4.1484375 65.1328125 C-2.99093994 65.13112061 -2.99093994 65.13112061 -1.81005859 65.12939453 C0.02124049 65.1970552 0.02124049 65.1970552 1 64 C1.39620555 59.95817169 1.39620555 59.95817169 1 56 C-1.12497747 53.97477807 -1.12497747 53.97477807 -4 53 C-4.9075 52.62875 -5.815 52.2575 -6.75 51.875 C-7.86375 51.441875 -7.86375 51.441875 -9 51 C-9.33 50.67 -9.66 50.34 -10 50 C-12.03539568 49.64896799 -14.07889489 49.34448032 -16.125 49.0625 C-20.91450755 48.36172497 -25.40226568 47.49693675 -30 46 C-30 45.34 -30 44.68 -30 44 C-30.556875 43.896875 -31.11375 43.79375 -31.6875 43.6875 C-37.33519113 42.00845669 -40.59556631 38.72838013 -44 34 C-46.07823694 26.15465556 -46.02308801 18.1177711 -42 11 C-41.34 10.67 -40.68 10.34 -40 10 C-39.67 9.01 -39.34 8.02 -39 7 C-29.83120273 -1.65666625 -11.87542909 -3.70730401 0 0 Z " fill="#5E1E69" transform="translate(467,153)"/>
<path d="M0 0 C0 0.66 0 1.32 0 2 C0.88300781 2.0928125 1.76601563 2.185625 2.67578125 2.28125 C6.32775765 3.07086652 8.22969389 4.262156 11.1875 6.5 C13.88784159 8.5242192 15.78502082 9.92834027 19 11 C20.16796875 13.22265625 20.16796875 13.22265625 21.1875 16.0625 C21.53167969 16.98160156 21.87585938 17.90070313 22.23046875 18.84765625 C23 22 23 22 23 30 C16.07 30 9.14 30 2 30 C0.11656068 26.23312136 -0.22057835 24.97041037 0 21 C-0.66 21 -1.32 21 -2 21 C-2 20.34 -2 19.68 -2 19 C-5.84841348 17.81968762 -9.758279 17.66764649 -13.75 17.4375 C-14.44738281 17.39431641 -15.14476562 17.35113281 -15.86328125 17.30664062 C-17.57531922 17.20110404 -19.28763561 17.1001009 -21 17 C-21.268125 17.639375 -21.53625 18.27875 -21.8125 18.9375 C-23 21 -23 21 -26 22 C-27.07109084 28.72168528 -27.22067577 35.27581677 -27.24023438 42.07080078 C-27.25000964 44.12702869 -27.28113318 46.182284 -27.3125 48.23828125 C-27.31765625 49.54410156 -27.3228125 50.84992188 -27.328125 52.1953125 C-27.3374707 53.38141113 -27.34681641 54.56750977 -27.35644531 55.78955078 C-26.96519929 59.31344476 -26.08809587 61.16796584 -24 64 C-20.62169685 66.48293995 -17.15781086 66.33129337 -13.0625 66.375 C-11.85722656 66.40335937 -10.65195312 66.43171875 -9.41015625 66.4609375 C-5.26977236 65.90129798 -3.76004039 65.13034993 -1 62 C-0.34 59.36 0.32 56.72 1 54 C8.26 54 15.52 54 23 54 C23 63.47427144 20.53734973 70.69071763 13.875 77.625 C9.62423628 81.13650046 6.75451643 82.23182026 1.25 82.625 C-0.22726562 82.73714844 -0.22726562 82.73714844 -1.734375 82.8515625 C-2.48203125 82.90054688 -3.2296875 82.94953125 -4 83 C-4 83.66 -4 84.32 -4 85 C-28.38008362 85.77993158 -28.38008362 85.77993158 -35.75 79.75 C-36.4925 78.8425 -37.235 77.935 -38 77 C-39.36903362 75.90913656 -40.74458491 74.82642477 -42.125 73.75 C-46.39981675 70.06286992 -47.83907924 66.43042271 -49 61 C-49.16983398 60.26233398 -49.33966797 59.52466797 -49.51464844 58.76464844 C-50.49222067 53.19622394 -50.27029202 47.51398676 -50.3125 41.875 C-50.34150391 40.6065625 -50.37050781 39.338125 -50.40039062 38.03125 C-50.47965127 26.20312324 -47.62594608 15.89632101 -40.0625 6.625 C-37.69461961 4.75939727 -35.96808142 4.32978682 -33 4 C-33 3.01 -33 2.02 -33 1 C-21.97837576 -1.05053474 -11.0940325 -2.09163509 0 0 Z " fill="#5D1C68" transform="translate(307,153)"/>
<path d="M0 0 C0 31.35 0 62.7 0 95 C-3.59766875 93.80077708 -4.38595433 92.58479707 -6.6875 89.625 C-7.39261719 88.72007812 -8.09773438 87.81515625 -8.82421875 86.8828125 C-11.59632833 83.20989173 -14.29308263 79.48688464 -16.97265625 75.74609375 C-19.65569632 72.11184102 -22.52489123 68.64655777 -25.43359375 65.19140625 C-26.98168665 63.02562043 -27.44273434 61.55227672 -28 59 C-28.598125 58.608125 -29.19625 58.21625 -29.8125 57.8125 C-32.61277549 55.49227173 -33.36253277 53.25041671 -34.734375 49.9296875 C-36.34925558 46.191538 -38.16638607 42.57225585 -40 38.9375 C-40.49838379 37.94713745 -40.49838379 37.94713745 -41.00683594 36.93676758 C-41.33458008 36.28603271 -41.66232422 35.63529785 -42 34.96484375 C-42.48726562 33.99200439 -42.48726562 33.99200439 -42.984375 32.99951172 C-43.6884441 31.61337569 -44.40835161 30.23521478 -45.140625 28.86376953 C-45.50671875 28.16751465 -45.8728125 27.47125977 -46.25 26.75390625 C-46.58515625 26.12943604 -46.9203125 25.50496582 -47.265625 24.86157227 C-48 23 -48 23 -48 19 C-48.66 19 -49.32 19 -50 19 C-50.6789678 17.29651829 -51.34261957 15.58692821 -52 13.875 C-52.37125 12.92367187 -52.7425 11.97234375 -53.125 10.9921875 C-54.04799753 7.83586558 -54.06353835 5.26825378 -54 2 C-53.09757568 1.97494385 -52.19515137 1.9498877 -51.26538086 1.92407227 C-47.89011166 1.82845373 -44.51498606 1.72925173 -41.13989258 1.62768555 C-39.6842047 1.58460067 -38.22847483 1.54290925 -36.77270508 1.50268555 C-34.66995639 1.44433589 -32.56741394 1.38083484 -30.46484375 1.31640625 C-29.202771 1.27974854 -27.94069824 1.24309082 -26.64038086 1.20532227 C-5.26991677 0 -5.26991677 0 0 0 Z " fill="#EA2144" transform="translate(115,118)"/>
<path d="M0 0 C14.5096875 -0.1546875 14.5096875 -0.1546875 29.3125 -0.3125 C32.32415283 -0.35802002 35.33580566 -0.40354004 38.4387207 -0.45043945 C56.48442001 -0.60873699 75.01436016 -0.45960694 90 11 C91.36511719 12.04027344 91.36511719 12.04027344 92.7578125 13.1015625 C100.98599793 19.62581852 108.253759 26.1574255 113.67578125 35.21484375 C114.96256266 37.30615252 114.96256266 37.30615252 118 38 C117 41 117 41 115 42 C115.1440088 43.66682531 115.29031844 45.33345185 115.4375 47 C115.51871094 47.928125 115.59992188 48.85625 115.68359375 49.8125 C115.91262075 52.11973499 116.19564961 54.4218201 116.51171875 56.71875 C118.3782301 71.55232562 117.48639961 85.09512492 112 99 C111.505 100.485 111.505 100.485 111 102 C110.34 102 109.68 102 109 102 C108.773125 103.093125 108.54625 104.18625 108.3125 105.3125 C107 109 107 109 104.375 110.9375 C103.59125 111.288125 102.8075 111.63875 102 112 C104.64150943 102.56603774 104.64150943 102.56603774 106 99 C106.66 98.67 107.32 98.34 108 98 C108.65232141 95.6833206 108.65232141 95.6833206 109.0625 93 C109.90566038 88.09433962 109.90566038 88.09433962 111 87 C111.15806531 85.07521187 111.251135 83.1450079 111.31640625 81.21484375 C111.35830078 80.04501953 111.40019531 78.87519531 111.44335938 77.66992188 C111.48267578 76.43822266 111.52199219 75.20652344 111.5625 73.9375 C111.60568359 72.70193359 111.64886719 71.46636719 111.69335938 70.19335938 C111.79984198 67.12902665 111.90185424 64.06460927 112 61 C111.34 61 110.68 61 110 61 C109.9175 59.845 109.835 58.69 109.75 57.5 C109.26023623 53.4896155 107.98058746 50.47064275 106.03515625 46.95703125 C105 45 105 45 104.06640625 42.53125 C100.98873894 35.22601771 93.24837872 25.3955668 85.9375 22.05859375 C83.84443815 21.41482732 83.84443815 21.41482732 81 21 C81 20.34 81 19.68 81 19 C80.030625 18.731875 79.06125 18.46375 78.0625 18.1875 C77.051875 17.795625 76.04125 17.40375 75 17 C74.505 15.515 74.505 15.515 74 14 C72.700625 13.87625 71.40125 13.7525 70.0625 13.625 C66.97137282 13.33060694 64.08717448 12.76785579 61.08789062 12 C55.31927424 10.709991 49.63720745 10.64831185 43.74609375 10.5859375 C42.60463394 10.56657135 41.46317413 10.5472052 40.28712463 10.5272522 C36.67065715 10.46786402 33.05415714 10.42123465 29.4375 10.375 C26.97329404 10.3367827 24.5091009 10.29772883 22.04492188 10.2578125 C16.03006244 10.16219628 10.01512464 10.07703151 4 10 C3.67 8.68 3.34 7.36 3 6 C2.34 6 1.68 6 1 6 C1 38.01 1 70.02 1 103 C-0.485 103.495 -0.485 103.495 -2 104 C-2 103.34 -2 102.68 -2 102 C-1.34 102 -0.68 102 0 102 C0 68.34 0 34.68 0 0 Z " fill="#EFE9F1" transform="translate(115,111)"/>
<path d="M0 0 C9.57 0.33 19.14 0.66 29 1 C29 1.33 29 1.66 29 2 C22.73 2 16.46 2 10 2 C10 27.74 10 53.48 10 80 C23.0650596 78.94190984 23.0650596 78.94190984 36 77 C36 76.34 36 75.68 36 75 C39.465 74.01 39.465 74.01 43 73 C43 72.34 43 71.68 43 71 C43.66 71 44.32 71 45 71 C45 70.34 45 69.68 45 69 C45.66 69 46.32 69 47 69 C47.2475 68.484375 47.495 67.96875 47.75 67.4375 C49.39581616 64.22815849 51.1976096 61.12414336 53 58 C53.33 58.66 53.66 59.32 54 60 C53.14453125 62.3125 53.14453125 62.3125 51.8125 65 C51.38582031 65.886875 50.95914063 66.77375 50.51953125 67.6875 C48.87950612 70.18337372 47.7548113 70.96178418 45 72 C45 72.66 45 73.32 45 74 C45.99 74.495 45.99 74.495 47 75 C46.67 76.65 46.34 78.3 46 80 C43.525 80.495 43.525 80.495 41 81 C41 81.66 41 82.32 41 83 C27.55125285 88.74031891 27.55125285 88.74031891 20 88 C20 88.66 20 89.32 20 90 C13.4 90 6.8 90 0 90 C0 60.3 0 30.6 0 0 Z " fill="#E7C9D5" transform="translate(142,141)"/>
<path d="M0 0 C6.27 0 12.54 0 19 0 C19.66 0.66 20.32 1.32 21 2 C20.52663604 4.51550463 19.95744856 6.86169606 19.25 9.3125 C14.91484033 24.59241136 14.60255754 39.52925137 14.375 55.3125 C14.3367436 57.51759226 14.29768766 59.7226708 14.2578125 61.92773438 C14.16265441 67.28504255 14.07832439 72.64242035 14 78 C9.38 78 4.76 78 0 78 C0 52.26 0 26.52 0 0 Z " fill="#E71C41" transform="translate(152,143)"/>
<path d="M0 0 C7.28421548 -0.02312916 14.5684231 -0.04091801 21.85266781 -0.05181217 C25.23471813 -0.05703975 28.6167434 -0.06413511 31.9987793 -0.07543945 C35.88329777 -0.08834267 39.76780597 -0.09322924 43.65234375 -0.09765625 C44.87211411 -0.10281754 46.09188446 -0.10797882 47.34861755 -0.11329651 C49.03024742 -0.11340981 49.03024742 -0.11340981 50.74584961 -0.11352539 C51.73846298 -0.115746 52.73107635 -0.11796661 53.75376892 -0.12025452 C56 0 56 0 57 1 C58.84855449 1.32534559 60.70435142 1.60988243 62.5625 1.875 C74.83510638 3.83510638 74.83510638 3.83510638 79 8 C79.73476562 8.25523438 80.46953125 8.51046875 81.2265625 8.7734375 C84.89756967 10.39695335 87.50631089 12.8893771 90.375 15.625 C90.95008301 16.1713208 91.52516602 16.7176416 92.11767578 17.28051758 C93.25088353 18.36580042 94.37978698 19.45559917 95.50390625 20.55029297 C96.70207544 21.71131266 97.92526793 22.84648606 99.15625 23.97265625 C110.82160257 35.61149666 112.27422591 52.88414447 112.39819336 68.40356445 C112.29217646 77.29638082 110.240035 84.7883703 107 93 C106.505 94.485 106.505 94.485 106 96 C105.34 96 104.68 96 104 96 C103.773125 97.093125 103.54625 98.18625 103.3125 99.3125 C102 103 102 103 99.375 104.9375 C98.59125 105.288125 97.8075 105.63875 97 106 C99.64150943 96.56603774 99.64150943 96.56603774 101 93 C101.66 92.67 102.32 92.34 103 92 C103.65232141 89.6833206 103.65232141 89.6833206 104.0625 87 C104.90566038 82.09433962 104.90566038 82.09433962 106 81 C106.15806531 79.07521187 106.251135 77.1450079 106.31640625 75.21484375 C106.35830078 74.04501953 106.40019531 72.87519531 106.44335938 71.66992188 C106.48267578 70.43822266 106.52199219 69.20652344 106.5625 67.9375 C106.60568359 66.70193359 106.64886719 65.46636719 106.69335938 64.19335938 C106.79984198 61.12902665 106.90185424 58.06460927 107 55 C106.34 55 105.68 55 105 55 C104.9175 53.845 104.835 52.69 104.75 51.5 C104.26023623 47.4896155 102.98058746 44.47064275 101.03515625 40.95703125 C100 39 100 39 99.06640625 36.53125 C95.98873894 29.22601771 88.24837872 19.3955668 80.9375 16.05859375 C78.84443815 15.41482732 78.84443815 15.41482732 76 15 C76 14.34 76 13.68 76 13 C75.030625 12.731875 74.06125 12.46375 73.0625 12.1875 C72.051875 11.795625 71.04125 11.40375 70 11 C69.505 9.515 69.505 9.515 69 8 C67.700625 7.87625 66.40125 7.7525 65.0625 7.625 C60.28150048 7.10136672 55.66885899 6.13686165 51 5 C51 4.34 51 3.68 51 3 C34.17 3 17.34 3 0 3 C0 2.01 0 1.02 0 0 Z " fill="#4D315C" transform="translate(120,117)"/>
<path d="M0 0 C1.24910156 -0.01836914 1.24910156 -0.01836914 2.5234375 -0.03710938 C3.71839844 -0.04000977 3.71839844 -0.04000977 4.9375 -0.04296875 C6.03384766 -0.04913208 6.03384766 -0.04913208 7.15234375 -0.05541992 C9 0.1875 9 0.1875 11 2.1875 C11.22705078 5.07666016 11.22705078 5.07666016 11.1953125 8.7265625 C11.19031738 9.89912598 11.18532227 11.07168945 11.18017578 12.27978516 C11.16196777 13.77558105 11.14375977 15.27137695 11.125 16.8125 C11.08375 21.55625 11.0425 26.3 11 31.1875 C20.57 31.1875 30.14 31.1875 40 31.1875 C40 21.6175 40 12.0475 40 2.1875 C40.33 2.1875 40.66 2.1875 41 2.1875 C41.02465622 6.44164623 41.04283899 10.69575498 41.05493164 14.94995117 C41.05997101 16.39820073 41.06680253 17.84644517 41.07543945 19.29467773 C41.08752247 21.37224588 41.09323211 23.44974697 41.09765625 25.52734375 C41.10289307 26.77894287 41.10812988 28.03054199 41.11352539 29.32006836 C41 32.1875 41 32.1875 40 33.1875 C37.78144736 33.27533542 35.56011504 33.29444609 33.33984375 33.28515625 C32.34314415 33.28303383 32.34314415 33.28303383 31.3263092 33.28086853 C29.19666101 33.27525518 27.06711661 33.26270054 24.9375 33.25 C23.49674631 33.24498671 22.05599097 33.24042351 20.61523438 33.23632812 C17.07678898 33.22528145 13.53840461 33.20800792 10 33.1875 C8.56490779 30.31731559 8.88841494 27.85206277 8.90234375 24.6484375 C8.90556641 23.34648437 8.90878906 22.04453125 8.91210938 20.703125 C8.92046534 19.32291601 8.92893029 17.94270768 8.9375 16.5625 C8.94251499 15.17448074 8.9470779 13.78645978 8.95117188 12.3984375 C8.96299015 8.99477327 8.9809261 5.5911313 9 2.1875 C3.39 2.1875 -2.22 2.1875 -8 2.1875 C-8 28.2575 -8 54.3275 -8 81.1875 C-2.39 81.1875 3.22 81.1875 9 81.1875 C8.98839844 78.88910156 8.97679687 76.59070313 8.96484375 74.22265625 C8.95705291 72.00529112 8.95097631 69.78792749 8.94506836 67.57055664 C8.9400286 66.02530234 8.9331968 64.48005284 8.92456055 62.93481445 C8.91247924 60.71824971 8.90676827 58.50174782 8.90234375 56.28515625 C8.89718246 55.5903566 8.89202118 54.89555695 8.88670349 54.17970276 C8.88650723 52.5152067 8.93810871 50.85084501 9 49.1875 C10.88319268 47.30430732 14.11930137 48.05695715 16.625 48.0546875 C17.28709473 48.05373077 17.94918945 48.05277405 18.63134766 48.05178833 C20.03352961 48.05110674 21.4357147 48.05295958 22.83789062 48.05712891 C24.99095713 48.06247754 27.14381502 48.0571833 29.296875 48.05078125 C30.65625046 48.05144204 32.0156258 48.05272321 33.375 48.0546875 C35.24285156 48.05637939 35.24285156 48.05637939 37.1484375 48.05810547 C40 48.1875 40 48.1875 41 49.1875 C41.0883967 51.5631852 41.11530305 53.90958674 41.09765625 56.28515625 C41.0962413 56.99401474 41.09482635 57.70287323 41.09336853 58.43321228 C41.08775443 60.70551712 41.07519963 62.97772475 41.0625 65.25 C41.05748681 66.78710796 41.05292359 68.32421745 41.04882812 69.86132812 C41.03778042 73.63675642 41.02050641 77.41211171 41 81.1875 C40.67 81.1875 40.34 81.1875 40 81.1875 C40 70.9575 40 60.7275 40 50.1875 C30.43 50.1875 20.86 50.1875 11 50.1875 C11 60.7475 11 71.3075 11 82.1875 C6.111875 82.249375 6.111875 82.249375 1.125 82.3125 C0.09906738 82.33070801 -0.92686523 82.34891602 -1.98388672 82.36767578 C-2.79100098 82.3726709 -3.59811523 82.37766602 -4.4296875 82.3828125 C-5.25710449 82.39328613 -6.08452148 82.40375977 -6.93701172 82.41455078 C-9 82.1875 -9 82.1875 -11 80.1875 C-11.1878075 77.65773465 -11.25191906 75.23842595 -11.22705078 72.70849609 C-11.22734283 71.93767197 -11.22763489 71.16684784 -11.22793579 70.37266541 C-11.22653974 67.81864255 -11.21096579 65.26490954 -11.1953125 62.7109375 C-11.19158334 60.94259806 -11.18873591 59.17425655 -11.18673706 57.40591431 C-11.17909293 52.74680905 -11.15943778 48.08782806 -11.1373291 43.42877197 C-11.11688744 38.67649008 -11.10773894 33.92418816 -11.09765625 29.171875 C-11.07619259 19.84369534 -11.04204728 10.51560799 -11 1.1875 C-7.58173253 -0.52163373 -3.76645237 0.00291521 0 0 Z " fill="#86588E" transform="translate(513,153.8125)"/>
<path d="M0 0 C2.475 0.495 2.475 0.495 5 1 C5 28.06 5 55.12 5 83 C26.36286679 83.0493255 26.36286679 83.0493255 36 80 C36.99 80.33 37.98 80.66 39 81 C25.06418444 89.19753856 20.72598583 87 0 87 C0 58.29 0 29.58 0 0 Z " fill="#482B56" transform="translate(143,142)"/>
<path d="M0 0 C0.99 0 1.98 0 3 0 C6.92216403 4.4170165 6.38028879 9.31329719 6.25 14.875 C6.24484375 15.74769531 6.2396875 16.62039062 6.234375 17.51953125 C6.07495303 30.77148225 6.07495303 30.77148225 3.6875 33.5 C3.130625 33.995 2.57375 34.49 2 35 C0.92030834 36.72750666 -0.05896706 38.49353004 -1.03515625 40.28125 C-1.94447862 41.90109552 -2.96957564 43.45436346 -4 45 C-4.66 45 -5.32 45 -6 45 C-6 45.66 -6 46.32 -6 47 C-7.65 47 -9.3 47 -11 47 C-11.042721 45.33388095 -11.04063832 43.66617115 -11 42 C-10.505 41.505 -10.505 41.505 -10 41 C-9.58295998 37.56889801 -9.23191473 34.13976663 -8.92578125 30.69726562 C-8.37314672 25.34420405 -7.00851545 20.99198667 -5 16 C-4.60919203 14.01043215 -4.25149128 12.01193023 -4 10 C-3.34 10 -2.68 10 -2 10 C-2.04125 9.278125 -2.0825 8.55625 -2.125 7.8125 C-1.99078695 4.79270631 -1.24829381 2.73064271 0 0 Z " fill="#3A184A" transform="translate(193,165)"/>
<path d="M0 0 C0.66 0 1.32 0 2 0 C2.23710693 0.69150146 2.47421387 1.38300293 2.71850586 2.09545898 C3.78849543 5.21051561 4.86293565 8.32401869 5.9375 11.4375 C6.49727539 13.07041992 6.49727539 13.07041992 7.06835938 14.73632812 C7.60493164 16.28803711 7.60493164 16.28803711 8.15234375 17.87109375 C8.48226318 18.82943115 8.81218262 19.78776855 9.15209961 20.77514648 C9.80334076 22.93965248 9.80334076 22.93965248 11 24 C11 25.65 11 27.3 11 29 C4.07 29 -2.86 29 -10 29 C-8.6298935 18.53736857 -6.01090484 8.83202284 0 0 Z " fill="#F8F4F8" transform="translate(375,176)"/>
<path d="M0 0 C7.28421548 -0.02312916 14.5684231 -0.04091801 21.85266781 -0.05181217 C25.23471813 -0.05703975 28.6167434 -0.06413511 31.9987793 -0.07543945 C35.88329777 -0.08834267 39.76780597 -0.09322924 43.65234375 -0.09765625 C44.87211411 -0.10281754 46.09188446 -0.10797882 47.34861755 -0.11329651 C49.03024742 -0.11340981 49.03024742 -0.11340981 50.74584961 -0.11352539 C51.73846298 -0.115746 52.73107635 -0.11796661 53.75376892 -0.12025452 C56 0 56 0 57 1 C58.84855449 1.32534559 60.70435142 1.60988243 62.5625 1.875 C69.07277426 2.92004997 76.14549709 4.14549709 81 9 C81 9.99 81 10.98 81 12 C77.16380538 13.27873154 76.33265798 12.45323084 72.75 10.75 C65.6408567 7.62232543 58.6255021 6.28133437 51 5 C51 4.34 51 3.68 51 3 C34.17 3 17.34 3 0 3 C0 2.01 0 1.02 0 0 Z " fill="#422450" transform="translate(120,117)"/>
<path d="M0 0 C14.5096875 -0.1546875 14.5096875 -0.1546875 29.3125 -0.3125 C32.32415283 -0.35802002 35.33580566 -0.40354004 38.4387207 -0.45043945 C71.81472915 -0.74374792 71.81472915 -0.74374792 85 8 C82.3333581 9.33332095 80.83319697 8.67102033 78 8 C78 7.34 78 6.68 78 6 C77.28972656 5.93941406 76.57945312 5.87882812 75.84765625 5.81640625 C74.92855469 5.73261719 74.00945312 5.64882812 73.0625 5.5625 C71.68771484 5.44068359 71.68771484 5.44068359 70.28515625 5.31640625 C68 5 68 5 67 4 C58.50136446 2.96090567 49.9074187 2.81698864 41.35546875 2.68359375 C40.34633423 2.66494263 39.33719971 2.6462915 38.29748535 2.6270752 C34.59423014 2.55972807 30.89085727 2.49897939 27.1875 2.4375 C18.875625 2.293125 10.56375 2.14875 2 2 C1.67 35.33 1.34 68.66 1 103 C-0.485 103.495 -0.485 103.495 -2 104 C-2 103.34 -2 102.68 -2 102 C-1.34 102 -0.68 102 0 102 C0 68.34 0 34.68 0 0 Z " fill="#D89BB4" transform="translate(115,111)"/>
<path d="M0 0 C11.76703914 4.02835574 22.40661136 15.74227628 28.67578125 26.21484375 C29.96256266 28.30615252 29.96256266 28.30615252 33 29 C32 32 32 32 30 33 C30 35.97 30 38.94 30 42 C28.07687889 39.11531833 27.11508696 36.67480895 25.9375 33.4375 C23.13501931 26.64781646 19.23371524 22.07267785 14 17 C13.05898437 16.08476562 12.11796875 15.16953125 11.1484375 14.2265625 C6.88429296 10.21527828 3.50249527 7.07786535 -2 5 C-2.33 4.34 -2.66 3.68 -3 3 C-1.68 3 -0.36 3 1 3 C0.67 2.01 0.34 1.02 0 0 Z " fill="#DBD3DD" transform="translate(200,120)"/>
<path d="M0 0 C0.66 0 1.32 0 2 0 C2 27.06 2 54.12 2 82 C23.36286679 82.0493255 23.36286679 82.0493255 33 79 C33.99 79.33 34.98 79.66 36 80 C25.41101695 86.22881356 25.41101695 86.22881356 21.6875 85.625 C21.130625 85.41875 20.57375 85.2125 20 85 C20.33 84.67 20.66 84.34 21 84 C20.09906616 83.96241577 20.09906616 83.96241577 19.17993164 83.92407227 C16.47388563 83.8084472 13.76821717 83.68557064 11.0625 83.5625 C10.11697266 83.52318359 9.17144531 83.48386719 8.19726562 83.44335938 C7.29814453 83.40146484 6.39902344 83.35957031 5.47265625 83.31640625 C4.64000244 83.27974854 3.80734863 83.24309082 2.94946289 83.20532227 C1 83 1 83 0 82 C-0.09506052 79.44410112 -0.12556761 76.91532028 -0.11352539 74.35913086 C-0.11367142 73.55919205 -0.11381744 72.75925323 -0.1139679 71.93507385 C-0.11326855 69.27830335 -0.10547518 66.62160207 -0.09765625 63.96484375 C-0.09579215 62.12781309 -0.09436821 60.29078194 -0.09336853 58.45375061 C-0.08954275 53.60890338 -0.07971196 48.76408592 -0.06866455 43.91925049 C-0.05845172 38.97937422 -0.05387119 34.03949315 -0.04882812 29.09960938 C-0.03808974 19.39972647 -0.0210126 9.69986571 0 0 Z " fill="#907E99" transform="translate(146,143)"/>
<path d="M0 0 C-0.42089996 5.60461531 -0.91613111 10.72086547 -3 16 C-7.46935022 15.50340553 -8.89338888 14.10661112 -12 11 C-13.29183559 10.29412359 -14.60715142 9.63029624 -15.9375 9 C-19.35854911 7.37580098 -22.21336428 5.61247099 -25 3 C-25 2.34 -25 1.68 -25 1 C-21.39588419 0.83222143 -17.7916996 0.66596812 -14.1875 0.5 C-13.16333984 0.45230469 -12.13917969 0.40460938 -11.08398438 0.35546875 C-10.10107422 0.31035156 -9.11816406 0.26523438 -8.10546875 0.21875 C-7.19949951 0.17685547 -6.29353027 0.13496094 -5.36010742 0.09179688 C-3.57449311 0.02234503 -1.78696447 0 0 0 Z " fill="#E72548" transform="translate(181,250)"/>
<path d="M0 0 C6.27 0 12.54 0 19 0 C19.66 0.66 20.32 1.32 21 2 C20.34 2.66 19.68 3.32 19 4 C19 3.34 19 2.68 19 2 C16.87506859 1.97306425 14.75004088 1.95363372 12.625 1.9375 C10.84996094 1.92009766 10.84996094 1.92009766 9.0390625 1.90234375 C6.08078479 1.78533407 6.08078479 1.78533407 4 3 C3.34 2.67 2.68 2.34 2 2 C2.00222061 2.89758026 2.00444122 3.79516052 2.00672913 4.71994019 C2.02674123 13.16638285 2.04197884 21.61281759 2.05181217 30.05927849 C2.05703746 34.4019967 2.06412873 38.74469538 2.07543945 43.08740234 C2.08628085 47.27598387 2.09227951 51.46454656 2.09487724 55.65314102 C2.09672922 57.25357485 2.10034552 58.8540076 2.10573006 60.45443344 C2.1129571 62.69083661 2.11399023 64.92716131 2.11352539 67.16357422 C2.115746 68.43820526 2.11796661 69.7128363 2.12025452 71.02609253 C2 74 2 74 1 76 C5.29 76 9.58 76 14 76 C14 76.66 14 77.32 14 78 C9.38 78 4.76 78 0 78 C0 52.26 0 26.52 0 0 Z " fill="#E93F5F" transform="translate(152,143)"/>
<path d="M0 0 C0.33 0 0.66 0 1 0 C1.20496094 0.91523438 1.40992188 1.83046875 1.62109375 2.7734375 C1.89050781 3.96195313 2.15992188 5.15046875 2.4375 6.375 C2.70433594 7.55835938 2.97117188 8.74171875 3.24609375 9.9609375 C3.85634695 12.89494581 3.85634695 12.89494581 5 15 C5.33 12.69 5.66 10.38 6 8 C6.33 8 6.66 8 7 8 C7.61525776 21.69090509 7.05039223 33.20015346 2 46 C1.67 46.99 1.34 47.98 1 49 C0.34 49 -0.32 49 -1 49 C-1.226875 50.093125 -1.45375 51.18625 -1.6875 52.3125 C-3 56 -3 56 -5.625 57.9375 C-6.40875 58.288125 -7.1925 58.63875 -8 59 C-5.35849057 49.56603774 -5.35849057 49.56603774 -4 46 C-3.01 45.505 -3.01 45.505 -2 45 C-1.34767859 42.6833206 -1.34767859 42.6833206 -0.9375 40 C-0.09433962 35.09433962 -0.09433962 35.09433962 1 34 C1.15806531 32.07521187 1.251135 30.1450079 1.31640625 28.21484375 C1.35830078 27.04501953 1.40019531 25.87519531 1.44335938 24.66992188 C1.50233398 22.82237305 1.50233398 22.82237305 1.5625 20.9375 C1.60568359 19.70193359 1.64886719 18.46636719 1.69335938 17.19335938 C1.79984198 14.12902665 1.90185424 11.06460927 2 8 C1.34 8 0.68 8 0 8 C0 5.36 0 2.72 0 0 Z " fill="#856F8F" transform="translate(225,164)"/>
<path d="M0 0 C3.34373475 0.55728913 6.03312999 1.35173889 9 3 C6.13822943 4.43088528 4.06624227 3.59991697 1 3 C-0.21693876 5.43387753 -0.31959896 7.41838846 -0.5625 10.125 C-0.64628906 11.03507813 -0.73007813 11.94515625 -0.81640625 12.8828125 C-0.87699219 13.58148438 -0.93757812 14.28015625 -1 15 C-1.66 15 -2.32 15 -3 15 C-2.98839844 15.92683594 -2.97679687 16.85367188 -2.96484375 17.80859375 C-2.95582031 19.00613281 -2.94679687 20.20367187 -2.9375 21.4375 C-2.92589844 22.63246094 -2.91429687 23.82742187 -2.90234375 25.05859375 C-3 28 -3 28 -4 29 C-4.0928726 30.41225046 -4.11746772 31.82908934 -4.11352539 33.24438477 C-4.11344986 34.14524307 -4.11337433 35.04610138 -4.11329651 35.97425842 C-4.10813522 36.95341721 -4.10297394 37.93257599 -4.09765625 38.94140625 C-4.0962413 39.93881332 -4.09482635 40.9362204 -4.09336853 41.96385193 C-4.08775114 45.16343124 -4.07519571 48.36294169 -4.0625 51.5625 C-4.05748724 53.72591045 -4.05292395 55.88932199 -4.04882812 58.05273438 C-4.03777606 63.36851629 -4.02049979 68.68424646 -4 74 C0.455 73.505 0.455 73.505 5 73 C0.58119757 75.94586829 -1.67767339 76.0985616 -7 76 C-7.96840717 17.1469163 -7.96840717 17.1469163 0 0 Z " fill="#832061" transform="translate(173,144)"/>
<path d="M0 0 C9.57 0 19.14 0 29 0 C29.495 15.345 29.495 15.345 30 31 C36.6 31 43.2 31 50 31 C50 31.66 50 32.32 50 33 C46.54173658 33.05789006 43.08359707 33.09355821 39.625 33.125 C38.64015625 33.14175781 37.6553125 33.15851563 36.640625 33.17578125 C35.69960938 33.18222656 34.75859375 33.18867188 33.7890625 33.1953125 C32.91975098 33.20578613 32.05043945 33.21625977 31.15478516 33.22705078 C29 33 29 33 27 31 C26.77294922 28.11083984 26.77294922 28.11083984 26.8046875 24.4609375 C26.81113281 23.15898437 26.81757812 21.85703125 26.82421875 20.515625 C26.84093071 19.13541405 26.85786061 17.75520571 26.875 16.375 C26.88502994 14.98698548 26.89415577 13.59896411 26.90234375 12.2109375 C26.92598069 8.80721808 26.96185269 5.40358772 27 2 C18.42 2 9.84 2 1 2 C1 11.57 1 21.14 1 31 C0.67 31 0.34 31 0 31 C0 20.77 0 10.54 0 0 Z " fill="#D2BED6" transform="translate(524,204)"/>
<path d="M0 0 C0 0.66 0 1.32 0 2 C0.99 2.33 1.98 2.66 3 3 C2.25951416 2.98428955 1.51902832 2.9685791 0.75610352 2.95239258 C-2.64168473 2.88952461 -6.03935004 2.85084559 -9.4375 2.8125 C-10.60216797 2.78736328 -11.76683594 2.76222656 -12.96679688 2.73632812 C-21.7249801 2.66231531 -28.24858075 4.03107506 -36 8 C-36 8.66 -36 9.32 -36 10 C-37.375 11.625 -37.375 11.625 -39 13 C-39.66 13 -40.32 13 -41 13 C-41.9327418 17.099361 -42.28825262 21.12043288 -42.5625 25.3125 C-42.64628906 26.56675781 -42.73007812 27.82101563 -42.81640625 29.11328125 C-42.87699219 30.06589844 -42.93757813 31.01851562 -43 32 C-42.34 32 -41.68 32 -41 32 C-40.67 33.98 -40.34 35.96 -40 38 C-44.16275743 34.37437256 -44.79022523 31.73514025 -45.203125 26.3515625 C-45.3050448 20.42322732 -44.93888695 16.19956921 -42 11 C-41.34 10.67 -40.68 10.34 -40 10 C-39.67 9.01 -39.34 8.02 -39 7 C-29.83120273 -1.65666625 -11.87542909 -3.70730401 0 0 Z " fill="#875A8F" transform="translate(467,153)"/>
<path d="M0 0 C3.12482562 -0.08687496 6.24934246 -0.14034568 9.375 -0.1875 C10.70917969 -0.22520508 10.70917969 -0.22520508 12.0703125 -0.26367188 C13.34648438 -0.27817383 13.34648438 -0.27817383 14.6484375 -0.29296875 C15.82672119 -0.31653442 15.82672119 -0.31653442 17.02880859 -0.34057617 C17.67930176 -0.22818604 18.32979492 -0.1157959 19 0 C21.42204038 3.63306058 21.23302891 5.31819023 21.1953125 9.63671875 C21.18886719 10.93544922 21.18242188 12.23417969 21.17578125 13.57226562 C21.1590706 14.94401307 21.14214071 16.31575786 21.125 17.6875 C21.11496674 19.07095718 21.10584149 20.45442127 21.09765625 21.83789062 C21.07405037 25.22533457 21.03817883 28.61268895 21 32 C29.58 32 38.16 32 47 32 C47 22.43 47 12.86 47 3 C47.99 2.67 48.98 2.34 50 2 C49.67 12.23 49.34 22.46 49 33 C39.43 33 29.86 33 20 33 C19.5625 18.5625 19.5625 18.5625 19.43188477 14.00219727 C19.3747229 12.23960571 19.3747229 12.23960571 19.31640625 10.44140625 C19.27974854 9.23170166 19.24309082 8.02199707 19.20532227 6.77563477 C19.31061734 4.09294544 19.31061734 4.09294544 18 3 C16.58429877 2.91348389 15.164405 2.89295096 13.74609375 2.90234375 C12.46508789 2.90717773 12.46508789 2.90717773 11.15820312 2.91210938 C9.81145508 2.92467773 9.81145508 2.92467773 8.4375 2.9375 C7.53580078 2.94201172 6.63410156 2.94652344 5.70507812 2.95117188 C3.46998686 2.96299775 1.23502563 2.9794778 -1 3 C-0.67 2.01 -0.34 1.02 0 0 Z " fill="#D7C5DA" transform="translate(504,152)"/>
<path d="M0 0 C0.66209473 -0.00095673 1.32418945 -0.00191345 2.00634766 -0.00289917 C3.40852961 -0.00358076 4.8107147 -0.00172792 6.21289062 0.00244141 C8.36595713 0.00779004 10.51881502 0.0024958 12.671875 -0.00390625 C14.03125046 -0.00324546 15.3906258 -0.00196429 16.75 0 C18.61785156 0.00169189 18.61785156 0.00169189 20.5234375 0.00341797 C23.375 0.1328125 23.375 0.1328125 24.375 1.1328125 C24.4633967 3.5084977 24.49030305 5.85489924 24.47265625 8.23046875 C24.4712413 8.93932724 24.46982635 9.64818573 24.46836853 10.37852478 C24.46275443 12.65082962 24.45019963 14.92303725 24.4375 17.1953125 C24.43248681 18.73242046 24.42792359 20.26952995 24.42382812 21.80664062 C24.41278042 25.58206892 24.39550641 29.35742421 24.375 33.1328125 C24.045 33.1328125 23.715 33.1328125 23.375 33.1328125 C23.375 22.9028125 23.375 12.6728125 23.375 2.1328125 C13.805 2.1328125 4.235 2.1328125 -5.625 2.1328125 C-5.625 12.6928125 -5.625 23.2528125 -5.625 34.1328125 C-6.285 34.1328125 -6.945 34.1328125 -7.625 34.1328125 C-7.64965288 29.45141996 -7.66783739 24.77006491 -7.67993164 20.08862305 C-7.68497157 18.49486636 -7.6918035 16.90111431 -7.70043945 15.30737305 C-7.71251999 13.02130997 -7.71823155 10.73530783 -7.72265625 8.44921875 C-7.72781754 7.73254532 -7.73297882 7.01587189 -7.73829651 6.27748108 C-7.73849263 4.56217578 -7.68692007 2.84699984 -7.625 1.1328125 C-5.74180732 -0.75038018 -2.50569863 0.00226965 0 0 Z " fill="#83548B" transform="translate(529.625,201.8671875)"/>
<path d="M0 0 C7.53717613 -0.04654565 15.07433715 -0.08198136 22.61162472 -0.10362434 C26.11231029 -0.11401714 29.61289681 -0.1280929 33.11352539 -0.15087891 C37.14730731 -0.17696796 41.18098678 -0.18650998 45.21484375 -0.1953125 C46.45894516 -0.20563507 47.70304657 -0.21595764 48.98484802 -0.22659302 C55.63181938 -0.22744356 61.61245978 0.07939783 68 2 C68.495 2.99 68.495 2.99 69 4 C67.18706911 3.85962479 65.3746557 3.71255111 63.5625 3.5625 C62.04849609 3.44068359 62.04849609 3.44068359 60.50390625 3.31640625 C58 3 58 3 57 2 C55.25161165 1.8768483 53.49835496 1.82212189 51.74584961 1.79467773 C50.62476303 1.77473251 49.50367645 1.75478729 48.34861755 1.73423767 C47.1288472 1.71752518 45.90907684 1.70081268 44.65234375 1.68359375 C43.41078018 1.66281265 42.16921661 1.64203156 40.89002991 1.62062073 C37.58400877 1.56616391 34.27797755 1.51595795 30.97186279 1.46777344 C27.60032509 1.41760144 24.22887947 1.36189299 20.85742188 1.30664062 C14.23835449 1.19929962 7.6192184 1.09755802 1 1 C1 1.99 1 2.98 1 4 C17.83 4 34.66 4 52 4 C52 4.33 52 4.66 52 5 C34.84 5 17.68 5 0 5 C0 3.35 0 1.7 0 0 Z " fill="#9D89A4" transform="translate(119,116)"/>
<path d="M0 0 C0.66 0.33 1.32 0.66 2 1 C-2.61252802 5.9306334 -7.63398668 5.7770223 -14 6 C-14 6.66 -14 7.32 -14 8 C-16.83339965 8.02724423 -19.66653117 8.04695589 -22.5 8.0625 C-23.68722656 8.07506836 -23.68722656 8.07506836 -24.8984375 8.08789062 C-32.4285823 8.11875187 -39.38191138 8.03541989 -46 4 C-46.33 3.34 -46.66 2.68 -47 2 C-45.52031676 2.14049518 -44.04125484 2.28754826 -42.5625 2.4375 C-41.32693359 2.55931641 -41.32693359 2.55931641 -40.06640625 2.68359375 C-38 3 -38 3 -37 4 C-35.00217874 4.15825258 -32.99911166 4.25119171 -30.99609375 4.31640625 C-29.78115234 4.35830078 -28.56621094 4.40019531 -27.31445312 4.44335938 C-26.03505859 4.48267578 -24.75566406 4.52199219 -23.4375 4.5625 C-22.15423828 4.60568359 -20.87097656 4.64886719 -19.54882812 4.69335938 C-16.36600147 4.799848 -13.18309326 4.90185962 -10 5 C-10 4.34 -10 3.68 -10 3 C-9.04287109 2.80083984 -9.04287109 2.80083984 -8.06640625 2.59765625 C-7.24011719 2.42105469 -6.41382813 2.24445313 -5.5625 2.0625 C-4.73878906 1.88847656 -3.91507812 1.71445313 -3.06640625 1.53515625 C-1.02338796 1.19247006 -1.02338796 1.19247006 0 0 Z " fill="#885D91" transform="translate(479,230)"/>
<path d="M0 0 C0.33 0.66 0.66 1.32 1 2 C0.14453125 4.3125 0.14453125 4.3125 -1.1875 7 C-1.61417969 7.886875 -2.04085937 8.77375 -2.48046875 9.6875 C-4.12049388 12.18337372 -5.2451887 12.96178418 -8 14 C-8 14.66 -8 15.32 -8 16 C-7.34 16.33 -6.68 16.66 -6 17 C-6.33 18.65 -6.66 20.3 -7 22 C-8.65 22.33 -10.3 22.66 -12 23 C-12 23.66 -12 24.32 -12 25 C-13.98 24.67 -15.96 24.34 -18 24 C-17.67 23.34 -17.34 22.68 -17 22 C-16.01 22 -15.02 22 -14 22 C-14 21.34 -14 20.68 -14 20 C-14.99 20.33 -15.98 20.66 -17 21 C-21.08594833 22.1865126 -24.76342394 22.14865179 -29 22 C-29 21.67 -29 21.34 -29 21 C-25.04 20.34 -21.08 19.68 -17 19 C-17 18.34 -17 17.68 -17 17 C-14.69 16.34 -12.38 15.68 -10 15 C-10 14.34 -10 13.68 -10 13 C-9.34 13 -8.68 13 -8 13 C-8 12.34 -8 11.68 -8 11 C-7.34 11 -6.68 11 -6 11 C-5.7525 10.484375 -5.505 9.96875 -5.25 9.4375 C-3.60418384 6.22815849 -1.8023904 3.12414336 0 0 Z " fill="#C9BBCD" transform="translate(195,199)"/>
<path d="M0 0 C0.66 0.33 1.32 0.66 2 1 C0.92319498 2.13125022 -0.16175635 3.25474919 -1.25 4.375 C-1.85328125 5.00148437 -2.4565625 5.62796875 -3.078125 6.2734375 C-6.7715356 9.59150149 -9.84158173 10.2743987 -14.75 10.625 C-16.22726562 10.73714844 -16.22726562 10.73714844 -17.734375 10.8515625 C-18.48203125 10.90054688 -19.2296875 10.94953125 -20 11 C-20 11.66 -20 12.32 -20 13 C-44.81958353 13.79399142 -44.81958353 13.79399142 -51.32421875 7.890625 C-51.87722656 7.26671875 -52.43023437 6.6428125 -53 6 C-50.525 6.495 -50.525 6.495 -48 7 C-48 7.66 -48 8.32 -48 9 C-43.69500266 9.04967599 -39.39016007 9.08584945 -35.08496094 9.10986328 C-33.62236624 9.11988105 -32.15979137 9.13349912 -30.69726562 9.15087891 C-28.58718961 9.17531439 -26.47737988 9.18652537 -24.3671875 9.1953125 C-22.46622314 9.21102295 -22.46622314 9.21102295 -20.52685547 9.22705078 C-16.9878486 8.99921772 -14.298712 8.25448962 -11 7 C-9.989375 6.731875 -8.97875 6.46375 -7.9375 6.1875 C-4.41449647 4.76330708 -2.51266103 2.80826821 0 0 Z " fill="#8E6596" transform="translate(323,225)"/>
<path d="M0 0 C5.14423607 2.11361004 7.57109083 6.15009341 10 11 C10.52084762 13.6334445 10.39386588 15.29920542 10 18 C9 19 9 19 7.05053711 19.11352539 C6.2178833 19.10828857 5.38522949 19.10305176 4.52734375 19.09765625 C3.62822266 19.09443359 2.72910156 19.09121094 1.80273438 19.08789062 C0.85720703 19.07951172 -0.08832031 19.07113281 -1.0625 19.0625 C-2.01189453 19.05798828 -2.96128906 19.05347656 -3.93945312 19.04882812 C-6.29303065 19.0370011 -8.64648477 19.02052025 -11 19 C-11.66 17.68 -12.32 16.36 -13 15 C-13.66 15 -14.32 15 -15 15 C-15.66 14.01 -16.32 13.02 -17 12 C-20.02380881 11.63418942 -20.02380881 11.63418942 -23.4375 11.8125 C-24.59121094 11.83957031 -25.74492187 11.86664063 -26.93359375 11.89453125 C-28.45146484 11.94673828 -28.45146484 11.94673828 -30 12 C-30.99 12 -31.98 12 -33 12 C-30.53515854 9.53515854 -29.06173082 9.7144108 -25.6875 9.67773438 C-24.6665625 9.68256836 -24.6665625 9.68256836 -23.625 9.6875 C-22.95210938 9.67138672 -22.27921875 9.65527344 -21.5859375 9.63867188 C-18.43158253 9.63556719 -16.29357686 9.83468937 -13.5234375 11.39453125 C-12 13 -12 13 -12 15 C-11.34 15 -10.68 15 -10 15 C-10 15.66 -10 16.32 -10 17 C-4.06 17 1.88 17 8 17 C6.26071027 11.26034388 4.5326846 6.82800229 1 2 C0.505 1.01 0.505 1.01 0 0 Z " fill="#8B5F93" transform="translate(478,159)"/>
<path d="M0 0 C1.58260327 3.16520654 0.10165944 6.06181101 -0.8125 9.3125 C-0.99103516 9.97701172 -1.16957031 10.64152344 -1.35351562 11.32617188 C-2.35451157 14.97962637 -3.37329296 18.57298476 -5 22 C-5.66 22.33 -6.32 22.66 -7 23 C-7.46651207 25.12576782 -7.46651207 25.12576782 -7.625 27.5625 C-7.69976562 28.38878906 -7.77453125 29.21507812 -7.8515625 30.06640625 C-7.90054687 30.70449219 -7.94953125 31.34257812 -8 32 C-5.20826945 32.02690104 -2.41679652 32.04679053 0.375 32.0625 C1.56609375 32.07506836 1.56609375 32.07506836 2.78125 32.08789062 C7.02392222 32.23040151 7.02392222 32.23040151 11 31 C10.67 32.32 10.34 33.64 10 35 C6.87507749 35.05791844 3.75029234 35.09356746 0.625 35.125 C-0.26445312 35.14175781 -1.15390625 35.15851563 -2.0703125 35.17578125 C-3.34648437 35.18544922 -3.34648437 35.18544922 -4.6484375 35.1953125 C-5.82672119 35.21102295 -5.82672119 35.21102295 -7.02880859 35.22705078 C-9 35 -9 35 -11 33 C-11.26991906 30.31160615 -11.08737357 27.70858064 -11 25 C-10.34 25 -9.68 25 -9 25 C-9 23.68 -9 22.36 -9 21 C-8.34 20.67 -7.68 20.34 -7 20 C-4.83215959 15.79183921 -4.47232999 11.64457826 -4 7 C-3.01 6.67 -2.02 6.34 -1 6 C-1.020625 5.195625 -1.04125 4.39125 -1.0625 3.5625 C-1 1 -1 1 0 0 Z " fill="#D7C3DB" transform="translate(344,203)"/>
<path d="M0 0 C7.57648998 -0.02557078 15.15296863 -0.04295863 22.72949219 -0.05493164 C25.30143652 -0.05992852 27.87337806 -0.06672827 30.4453125 -0.07543945 C34.16406956 -0.0877102 37.88278873 -0.09327491 41.6015625 -0.09765625 C43.2977623 -0.10539818 43.2977623 -0.10539818 45.02822876 -0.11329651 C73.83532231 -0.11527438 73.83532231 -0.11527438 84 7 C81.3333581 8.33332095 79.83319697 7.67102033 77 7 C77 6.34 77 5.68 77 5 C76.28972656 4.93941406 75.57945312 4.87882812 74.84765625 4.81640625 C73.92855469 4.73261719 73.00945312 4.64882812 72.0625 4.5625 C70.68771484 4.44068359 70.68771484 4.44068359 69.28515625 4.31640625 C67 4 67 4 66 3 C57.50132548 1.9609009 48.90745804 1.81712617 40.35546875 1.68359375 C39.21966873 1.66281265 38.08386871 1.64203156 36.91365051 1.62062073 C33.33831959 1.55601309 29.76292478 1.49665979 26.1875 1.4375 C23.74153025 1.39423001 21.2955666 1.35061326 18.84960938 1.30664062 C12.89980419 1.2004249 6.94993757 1.09850555 1 1 C0.67 2.32 0.34 3.64 0 5 C0 3.35 0 1.7 0 0 Z " fill="#DECFE4" transform="translate(116,112)"/>
<path d="M0 0 C1.485 0.99 1.485 0.99 3 2 C3 2.66 3 3.32 3 4 C3.66 4 4.32 4 5 4 C5.28875 4.804375 5.5775 5.60875 5.875 6.4375 C6.73262568 9.1326468 6.73262568 9.1326468 9 10 C9 11.65 9 13.3 9 15 C9.66 15 10.32 15 11 15 C11 23.25 11 31.5 11 40 C10.01 40 9.02 40 8 40 C8.01047363 39.2886792 8.02094727 38.5773584 8.03173828 37.84448242 C8.07328001 34.62552414 8.09932039 31.40662224 8.125 28.1875 C8.14175781 27.06794922 8.15851563 25.94839844 8.17578125 24.79492188 C8.18544922 23.18520508 8.18544922 23.18520508 8.1953125 21.54296875 C8.20578613 20.55321045 8.21625977 19.56345215 8.22705078 18.54370117 C8.18267404 15.7556048 8.18267404 15.7556048 6 13 C6 12.01 6 11.02 6 10 C5.01 10 4.02 10 3 10 C2.01 6.7 1.02 3.4 0 0 Z " fill="#B8ABBD" transform="translate(190,154)"/>
<path d="M0 0 C1.485 0.99 1.485 0.99 3 2 C3 2.99 3 3.98 3 5 C3.66 5 4.32 5 5 5 C5 6.32 5 7.64 5 9 C5.66 8.67 6.32 8.34 7 8 C6.67 5.69 6.34 3.38 6 1 C8.89163805 2.44581902 9.35072443 4.66600171 10.38916016 7.59375 C11.47637065 11.87654242 11.31192861 16.10990332 11.1875 20.5 C11.17396484 21.4178125 11.16042969 22.335625 11.14648438 23.28125 C11.11148097 25.52146803 11.06238869 27.76040594 11 30 C10.67 30 10.34 30 10 30 C9.79503906 29.07316406 9.59007812 28.14632812 9.37890625 27.19140625 C8.97478516 25.39509766 8.97478516 25.39509766 8.5625 23.5625 C8.29566406 22.36753906 8.02882812 21.17257813 7.75390625 19.94140625 C7.29933252 17.1295314 7.29933252 17.1295314 6 16 C5.95919217 14.00041636 5.95745644 11.99954746 6 10 C5.01 9.67 4.02 9.34 3 9 C2.05078125 6.93359375 2.05078125 6.93359375 1.3125 4.4375 C1.06113281 3.61121094 0.80976563 2.78492188 0.55078125 1.93359375 C0.36902344 1.29550781 0.18726563 0.65742188 0 0 Z " fill="#6B5375" transform="translate(220,154)"/>
<path d="M0 0 C2.96175123 0.61277612 4.38058783 1.25372522 7 3 C8.88317072 6.00912244 9.51798918 8.96404922 10.125 12.4375 C10.29257813 13.36433594 10.46015625 14.29117188 10.6328125 15.24609375 C10.98273843 17.87053825 11.06716891 20.35642353 11 23 C10.67 21.68 10.34 20.36 10 19 C9.34 19 8.68 19 8 19 C8 17.68 8 16.36 8 15 C7.34 15 6.68 15 6 15 C5.0234375 13.2421875 4.046875 11.484375 3.0703125 9.7265625 C1.99102726 7.8387386 1.99102726 7.8387386 0 6 C-0.125 2.875 -0.125 2.875 0 0 Z " fill="#50335E" transform="translate(217,144)"/>
<path d="M0 0 C0.99 0.33 1.98 0.66 3 1 C3 1.99 3 2.98 3 4 C3.66 4 4.32 4 5 4 C5 5.32 5 6.64 5 8 C5.66 8 6.32 8 7 8 C7.33 10.31 7.66 12.62 8 15 C8.99 15.33 9.98 15.66 11 16 C11.87890625 17.8125 11.87890625 17.8125 12.5625 20 C13.20681284 22.14541038 13.20681284 22.14541038 14 24 C14.66 24.33 15.32 24.66 16 25 C16.8515625 27.06640625 16.8515625 27.06640625 17.625 29.5625 C18.01558594 30.80193359 18.01558594 30.80193359 18.4140625 32.06640625 C18.70410156 33.02353516 18.70410156 33.02353516 19 34 C15.33031498 32.47096458 13.70306117 30.87372894 12.1875 27.3125 C11.71763672 26.136875 11.71763672 26.136875 11.23828125 24.9375 C9.33688983 20.42694371 7.05966035 16.1099154 4.81713867 11.76098633 C2.85981717 7.91100526 1.25261802 4.15171848 0 0 Z " fill="#F06981" transform="translate(69,143)"/>
<path d="M0 0 C0 0.33 0 0.66 0 1 C-8.58 1 -17.16 1 -26 1 C-26 1.66 -26 2.32 -26 3 C-26.99 3 -27.98 3 -29 3 C-29 3.66 -29 4.32 -29 5 C-32.64793184 6.27253436 -36.1936543 7.32829194 -40 8 C-40 8.66 -40 9.32 -40 10 C-40.66 9.67 -41.32 9.34 -42 9 C-39.16569547 5.7457985 -37.31392226 4.4793247 -33 4 C-33 3.01 -33 2.02 -33 1 C-21.97837576 -1.05053474 -11.0940325 -2.09163509 0 0 Z " fill="#B192B7" transform="translate(307,153)"/>
<path d="M0 0 C2.64 0.99 5.28 1.98 8 3 C8 3.66 8 4.32 8 5 C9.299375 4.938125 9.299375 4.938125 10.625 4.875 C14.17157124 5.00635449 16.65624021 5.86312167 20 7 C21.41329221 7.19320287 22.83054113 7.35907899 24.25 7.5 C28 8 28 8 30 10 C32.04788482 10.8375807 34.1236602 11.52034987 36.22265625 12.21875 C38 13 38 13 39 15 C34.13103697 14.40380045 29.67209049 13.43023178 25 12 C25 11.34 25 10.68 25 10 C23.7625 10.0928125 23.7625 10.0928125 22.5 10.1875 C18.80295068 9.98944379 16.28513886 9.11086745 12.90234375 7.734375 C10.63882374 6.86057261 8.39400505 6.37406329 6 6 C6 5.34 6 4.68 6 4 C4.02 3.34 2.04 2.68 0 2 C0 1.34 0 0.68 0 0 Z " fill="#AC8CB2" transform="translate(429,194)"/>
<path d="M0 0 C6.76952297 -0.22947535 11.79764241 0.18300223 17 5 C17 5.99 17 6.98 17 8 C12.90739982 9.36420006 10.52987341 7.7664515 6.8125 6.0625 C6.15830078 5.77181641 5.50410156 5.48113281 4.83007812 5.18164062 C3.21618656 4.46304657 1.60756345 3.7326412 0 3 C0 2.01 0 1.02 0 0 Z " fill="#482B57" transform="translate(184,121)"/>
<path d="M0 0 C0.66 0 1.32 0 2 0 C2.19350282 14.1042059 2.19350282 14.1042059 1 21 C0 22 0 22 -3.6875 22.1875 C-7.4413853 22.15368121 -10.49442596 21.40222961 -14 20 C-14 19.67 -14 19.34 -14 19 C-12.783125 18.979375 -11.56625 18.95875 -10.3125 18.9375 C-9.62800781 18.92589844 -8.94351563 18.91429688 -8.23828125 18.90234375 C-5.74507785 19.01112226 -3.43287087 19.45888861 -1 20 C-1.01160156 18.72382812 -1.02320313 17.44765625 -1.03515625 16.1328125 C-1.04453417 14.46354313 -1.05363437 12.79427217 -1.0625 11.125 C-1.07087891 10.28324219 -1.07925781 9.44148438 -1.08789062 8.57421875 C-1.09111328 7.76855469 -1.09433594 6.96289062 -1.09765625 6.1328125 C-1.10289307 5.38918457 -1.10812988 4.64555664 -1.11352539 3.87939453 C-1 2 -1 2 0 0 Z " fill="#C5B8CB" transform="translate(137,62)"/>
<path d="M0 0 C4.68520915 1.21815438 8.70543612 2.69559987 13 5 C13 6.32 13 7.64 13 9 C11.68 9.33 10.36 9.66 9 10 C9 10.66 9 11.32 9 12 C7.28515625 13.21875 7.28515625 13.21875 5.0625 14.5 C1.94567974 16.18454879 1.94567974 16.18454879 0 19 C-2.0625 19.625 -2.0625 19.625 -4 20 C-4 19.34 -4 18.68 -4 18 C-3.34 18 -2.68 18 -2 18 C-2 17.34 -2 16.68 -2 16 C-0.1015625 14.2734375 -0.1015625 14.2734375 2.375 12.375 C3.59316406 11.42753906 3.59316406 11.42753906 4.8359375 10.4609375 C7 9 7 9 9 9 C9 8.01 9 7.02 9 6 C8.01 6 7.02 6 6 6 C6 5.34 6 4.68 6 4 C4.02 3.34 2.04 2.68 0 2 C0 1.34 0 0.68 0 0 Z " fill="#B6A9BC" transform="translate(265,100)"/>
<path d="M0 0 C3.83663072 1.34929464 6.65172569 3.07751025 9.8125 5.625 C10.99779297 6.57246094 10.99779297 6.57246094 12.20703125 7.5390625 C13.09455078 8.26222656 13.09455078 8.26222656 14 9 C13.01 9.66 12.02 10.32 11 11 C10.67 11.66 10.34 12.32 10 13 C9.55269531 12.59007812 9.10539063 12.18015625 8.64453125 11.7578125 C5.20950137 8.69631465 2.3893071 6.54916721 -2 5 C-2.33 4.34 -2.66 3.68 -3 3 C-1.68 3 -0.36 3 1 3 C0.67 2.01 0.34 1.02 0 0 Z " fill="#D4C8D9" transform="translate(200,120)"/>
<path d="M0 0 C0 3.44331083 -1.10168936 5.04707235 -2.9296875 7.890625 C-5.7492103 13.44734876 -6.28474348 18.99088373 -6.1953125 25.12109375 C-6.1924826 25.86585464 -6.18965271 26.61061554 -6.18673706 27.37794495 C-6.17563917 29.73130101 -6.1505551 32.08426109 -6.125 34.4375 C-6.11495672 36.04361425 -6.10583324 37.64973454 -6.09765625 39.25585938 C-6.07573407 43.17072296 -6.04127761 47.0852946 -6 51 C-6.66 51 -7.32 51 -8 51 C-8 38.13 -8 25.26 -8 12 C-7.34 12 -6.68 12 -6 12 C-6 10.35 -6 8.7 -6 7 C-5.34 7 -4.68 7 -4 7 C-3.71125 6.21625 -3.4225 5.4325 -3.125 4.625 C-2 2 -2 2 0 0 Z " fill="#D2BBD6" transform="translate(264,163)"/>
<path d="M0 0 C-0.42089996 5.60461531 -0.91613111 10.72086547 -3 16 C-4.65 15.67 -6.3 15.34 -8 15 C-6.68 14.67 -5.36 14.34 -4 14 C-4 12.68 -4 11.36 -4 10 C-4.66 10 -5.32 10 -6 10 C-6.66 7.03 -7.32 4.06 -8 1 C-5.23735711 0.40267181 -2.83967231 0 0 0 Z " fill="#93577C" transform="translate(181,250)"/>
<path d="M0 0 C1.47906892 -0.02689216 2.95827483 -0.04634621 4.4375 -0.0625 C5.26121094 -0.07410156 6.08492187 -0.08570312 6.93359375 -0.09765625 C9 0 9 0 10 1 C11.918125 1.185625 11.918125 1.185625 13.875 1.375 C18.46556968 1.83188134 22.6585611 2.95626919 27.078125 4.2421875 C31.19652744 5.31032931 35.35440786 5.89754594 39.56640625 6.47265625 C42 7 42 7 44 9 C38.06361776 9.21586845 32.71248111 8.71249434 27 7 C26.67 6.67 26.34 6.34 26 6 C23.335274 5.4795457 20.67774408 5.00536525 18 4.5625 C11.95519231 3.53323359 5.96967392 2.41101383 0 1 C0 0.67 0 0.34 0 0 Z " fill="#441753" transform="translate(165,90)"/>
<path d="M0 0 C-10.58898305 6.22881356 -10.58898305 6.22881356 -14.3125 5.625 C-14.869375 5.41875 -15.42625 5.2125 -16 5 C-15.67 4.67 -15.34 4.34 -15 4 C-21.6 3.67 -28.2 3.34 -35 3 C-35 2.67 -35 2.34 -35 2 C-33.91900024 1.970271 -33.91900024 1.970271 -32.81616211 1.93994141 C-29.52293328 1.8441634 -26.23029332 1.73469883 -22.9375 1.625 C-21.80376953 1.5940625 -20.67003906 1.563125 -19.50195312 1.53125 C-12.59725942 1.3359813 -12.59725942 1.3359813 -5.87890625 -0.1015625 C-3 -1 -3 -1 0 0 Z " fill="#897691" transform="translate(182,223)"/>
<path d="M0 0 C0.98391678 3.27181382 1.1029257 6.19707693 1.0625 9.60546875 C1.05476563 10.67087891 1.04703125 11.73628906 1.0390625 12.83398438 C1.02617187 13.94064453 1.01328125 15.04730469 1 16.1875 C0.97461931 18.38927519 0.95354272 20.59110572 0.9375 22.79296875 C0.92589844 23.7677417 0.91429687 24.74251465 0.90234375 25.74682617 C0.74441777 27.96969282 0.74441777 27.96969282 2 29 C2.07226502 30.85287502 2.0838122 32.70833878 2.0625 34.5625 C2.05347656 35.57441406 2.04445313 36.58632812 2.03515625 37.62890625 C2.02355469 38.41136719 2.01195312 39.19382813 2 40 C2.66 40 3.32 40 4 40 C4.33 42.31 4.66 44.62 5 47 C3 46 3 46 2.18359375 44.109375 C1.93738281 43.33078125 1.69117188 42.5521875 1.4375 41.75 C1.18871094 40.98171875 0.93992187 40.2134375 0.68359375 39.421875 C-0.66956647 34.62782164 -1.12800076 30.26321083 -1.1328125 25.2734375 C-1.13410156 23.9946875 -1.13539063 22.7159375 -1.13671875 21.3984375 C-1.13462402 20.73811523 -1.1325293 20.07779297 -1.13037109 19.39746094 C-1.12499807 17.37427335 -1.13034112 15.35130592 -1.13671875 13.328125 C-1.13542969 12.05195313 -1.13414062 10.77578125 -1.1328125 9.4609375 C-1.13168457 8.29353027 -1.13055664 7.12612305 -1.12939453 5.92333984 C-1 3 -1 3 0 0 Z " fill="#805389" transform="translate(258,177)"/>
<path d="M0 0 C3.375 -0.1875 3.375 -0.1875 7 0 C7.66 0.99 8.32 1.98 9 3 C6.69 2.67 4.38 2.34 2 2 C2.020625 2.804375 2.04125 3.60875 2.0625 4.4375 C2 7 2 7 1 8 C0.79043117 9.78715644 0.63188384 11.58043769 0.5 13.375 C0.26763656 16.52020509 0.00124031 18.99627907 -1 22 C-1.66 22 -2.32 22 -3 22 C-3.45755719 14.37404682 -1.74536299 7.3970146 0 0 Z " fill="#715B7D" transform="translate(142,38)"/>
<path d="M0 0 C2.29823659 2.29823659 2.29690384 2.94880882 2.5625 6.0625 C2.55913448 9.76736617 2.55913448 9.76736617 4 11 C4.4638066 14.99102718 4.70468177 18.99210968 5 23 C9.29 23 13.58 23 18 23 C18 21.02 18 19.04 18 17 C18.33 17 18.66 17 19 17 C19 19.31 19 21.62 19 24 C13.72 24 8.44 24 3 24 C0.54274575 16.13678639 0.3769224 8.17326473 0 0 Z " fill="#7C427D" transform="translate(96,94)"/>
<path d="M0 0 C0.33 0 0.66 0 1 0 C3.66641331 5.98368341 3.22314726 11.96522925 3.125 18.375 C3.11597656 19.49261719 3.10695312 20.61023438 3.09765625 21.76171875 C3.07418346 24.50803462 3.04134728 27.25390472 3 30 C2.34 30 1.68 30 1 30 C0.67 20.1 0.34 10.2 0 0 Z " fill="#C8BCCD" transform="translate(231,164)"/>
<path d="M0 0 C3.36241563 0.45438049 6.04009971 1.35561095 9 3 C6.13822943 4.43088528 4.06624227 3.59991697 1 3 C-0.21693876 5.43387753 -0.31959896 7.41838846 -0.5625 10.125 C-0.64628906 11.03507813 -0.73007813 11.94515625 -0.81640625 12.8828125 C-0.87699219 13.58148438 -0.93757812 14.28015625 -1 15 C-1.66 15 -2.32 15 -3 15 C-3.33 17.97 -3.66 20.94 -4 24 C-4.33 24 -4.66 24 -5 24 C-4.0952381 4.0952381 -4.0952381 4.0952381 0 0 Z " fill="#851758" transform="translate(173,144)"/>
<path d="M0 0 C0.66 0.33 1.32 0.66 2 1 C0.625 2.5 0.625 2.5 -1 4 C-1.66 4 -2.32 4 -3 4 C-3.79348625 8.87348823 -4.11813526 13.52940184 -4.09765625 18.46484375 C-4.0962413 19.14301651 -4.09482635 19.82118927 -4.09336853 20.51991272 C-4.08782745 22.65915578 -4.07528653 24.79828925 -4.0625 26.9375 C-4.05747736 28.39908702 -4.0529158 29.86067569 -4.04882812 31.32226562 C-4.03787745 34.88154526 -4.02065445 38.44076191 -4 42 C-4.66 42 -5.32 42 -6 42 C-6.1238722 36.96469037 -6.21446514 31.93027303 -6.2746582 26.89379883 C-6.29975714 25.18172755 -6.33384429 23.46976296 -6.37719727 21.75805664 C-6.43805739 19.29286355 -6.46625432 16.82909015 -6.48828125 14.36328125 C-6.51408768 13.60163162 -6.5398941 12.83998199 -6.56648254 12.05525208 C-6.56863689 7.94587664 -6.20185317 6.24210799 -3.53198242 3.03979492 C-2.69642822 2.3666626 -1.86087402 1.69353027 -1 1 C-0.67 0.67 -0.34 0.34 0 0 Z " fill="#84588D" transform="translate(284,171)"/>
<path d="M0 0 C0.25 6.625 0.25 6.625 -2 10 C-1.67 7.36 -1.34 4.72 -1 2 C-1.99 2.33 -2.98 2.66 -4 3 C-5.70016844 3.08178114 -7.40336297 3.10749501 -9.10546875 3.09765625 C-10.08837891 3.09443359 -11.07128906 3.09121094 -12.08398438 3.08789062 C-13.10814453 3.07951172 -14.13230469 3.07113281 -15.1875 3.0625 C-16.22326172 3.05798828 -17.25902344 3.05347656 -18.32617188 3.04882812 C-20.88417266 3.0370401 -23.44205733 3.02058515 -26 3 C-25.67 3.99 -25.34 4.98 -25 6 C-25.99 5.67 -26.98 5.34 -28 5 C-28 4.01 -28 3.02 -28 2 C-26.74703125 1.93941406 -25.4940625 1.87882813 -24.203125 1.81640625 C-22.55207276 1.73197744 -20.90103165 1.64733061 -19.25 1.5625 C-18.425 1.52318359 -17.6 1.48386719 -16.75 1.44335938 C-15.95078125 1.40146484 -15.1515625 1.35957031 -14.328125 1.31640625 C-13.5949707 1.27974854 -12.86181641 1.24309082 -12.10644531 1.20532227 C-7.92598883 0.7978392 -4.28800427 -0.09745464 0 0 Z " fill="#DDC2CF" transform="translate(182,248)"/>
<path d="M0 0 C1.794375 0.144375 3.58875 0.28875 5.4375 0.4375 C6.95150391 0.55931641 6.95150391 0.55931641 8.49609375 0.68359375 C11 1 11 1 12 2 C13.67884238 2.3931648 15.36850045 2.74085452 17.0625 3.0625 C17.98160156 3.23910156 18.90070313 3.41570312 19.84765625 3.59765625 C20.55792969 3.73042969 21.26820312 3.86320312 22 4 C18.70357511 5.03158708 15.98983207 5.00598994 12.5625 4.6875 C11.17224609 4.56955078 11.17224609 4.56955078 9.75390625 4.44921875 C6.93166533 3.98885321 4.60571016 3.15861885 2 2 C2 5.3 2 8.6 2 12 C1.67 12 1.34 12 1 12 C0.67 8.04 0.34 4.08 0 0 Z " fill="#8C6093" transform="translate(93,75)"/>
<path d="M0 0 C3.79165074 -0.0289337 7.58327327 -0.04677601 11.375 -0.0625 C12.45523437 -0.07087891 13.53546875 -0.07925781 14.6484375 -0.08789062 C16.1953125 -0.09272461 16.1953125 -0.09272461 17.7734375 -0.09765625 C18.72653809 -0.10289307 19.67963867 -0.10812988 20.66162109 -0.11352539 C23 0 23 0 25 1 C24.67 1.66 24.34 2.32 24 3 C16.08 3 8.16 3 0 3 C0 2.01 0 1.02 0 0 Z " fill="#A887AD" transform="translate(363,153)"/>
<path d="M0 0 C1.63118783 0.56579947 3.25484494 1.15334233 4.875 1.75 C5.77992188 2.07484375 6.68484375 2.3996875 7.6171875 2.734375 C10.3739948 4.19864642 10.77291925 5.22770645 12 8 C14.55519921 8.81171228 14.55519921 8.81171228 17 9 C17.33 7.02 17.66 5.04 18 3 C18.33 3 18.66 3 19 3 C19.25 8.625 19.25 8.625 17 12 C16.01 12 15.02 12 14 12 C14 11.34 14 10.68 14 10 C13.01 10 12.02 10 11 10 C11 9.34 11 8.68 11 8 C10.34 8 9.68 8 9 8 C9 7.01 9 6.02 9 5 C6.03 4.01 3.06 3.02 0 2 C0 1.34 0 0.68 0 0 Z " fill="#EDABBA" transform="translate(161,257)"/>
<path d="M0 0 C0.33 0.66 0.66 1.32 1 2 C1.66 2 2.32 2 3 2 C3 2.66 3 3.32 3 4 C2.34 4 1.68 4 1 4 C0.773125 5.093125 0.54625 6.18625 0.3125 7.3125 C-1 11 -1 11 -3.625 12.9375 C-4.40875 13.288125 -5.1925 13.63875 -6 14 C-3.35849057 4.56603774 -3.35849057 4.56603774 -2 1 C-1.34 0.67 -0.68 0.34 0 0 Z " fill="#ACA0B1" transform="translate(223,209)"/>
<path d="M0 0 C2.95857409 -0.05379226 5.91617721 -0.09357093 8.875 -0.125 C9.71675781 -0.14175781 10.55851563 -0.15851563 11.42578125 -0.17578125 C12.23144531 -0.18222656 13.03710938 -0.18867188 13.8671875 -0.1953125 C14.98262939 -0.21102295 14.98262939 -0.21102295 16.12060547 -0.22705078 C18 0 18 0 20 2 C19.34 2.66 18.68 3.32 18 4 C18 3.34 18 2.68 18 2 C15.87506859 1.97306425 13.75004088 1.95363372 11.625 1.9375 C9.84996094 1.92009766 9.84996094 1.92009766 8.0390625 1.90234375 C5.08078479 1.78533407 5.08078479 1.78533407 3 3 C2.34 2.67 1.68 2.34 1 2 C1 5.96 1 9.92 1 14 C0.67 14 0.34 14 0 14 C0 9.38 0 4.76 0 0 Z " fill="#E12E51" transform="translate(153,143)"/>
<path d="M0 0 C1.32 0 2.64 0 4 0 C4 0.66 4 1.32 4 2 C6.31 2.33 8.62 2.66 11 3 C11.33 3.99 11.66 4.98 12 6 C6.62007164 5.66009167 2.46726453 5.31442207 -2 2 C-1.34 1.34 -0.68 0.68 0 0 Z " fill="#F0E7F2" transform="translate(189,117)"/>
<path d="M0 0 C0.598125 0.639375 1.19625 1.27875 1.8125 1.9375 C3.90810337 4.20310389 3.90810337 4.20310389 7 5 C6 8 6 8 4 9 C4 11.97 4 14.94 4 18 C0.593167 12.88975049 -0.12683836 11.13500885 1 5 C0.63141012 2.23135047 0.63141012 2.23135047 0 0 Z " fill="#C6BBCC" transform="translate(226,144)"/>
<path d="M0 0 C2.875 0.875 2.875 0.875 6 3 C7.14100188 6.28038042 7.62510465 9.55484102 8 13 C5.39075213 11.99138318 4.20251153 11.33501908 2.734375 8.90625 C2.40953125 8.1121875 2.0846875 7.318125 1.75 6.5 C1.41484375 5.7059375 1.0796875 4.911875 0.734375 4.09375 C0 2 0 2 0 0 Z " fill="#F0EBF1" transform="translate(220,139)"/>
<path d="M0 0 C0.66 0.33 1.32 0.66 2 1 C1.01 1.33 0.02 1.66 -1 2 C-1.433125 3.3921875 -1.433125 3.3921875 -1.875 4.8125 C-3.5427234 9.53771631 -6.5561253 11.14680131 -10.75 13.625 C-13.12145809 14.8012504 -13.12145809 14.8012504 -14 17 C-14.66 16.67 -15.32 16.34 -16 16 C-15.07038578 14.84775972 -14.1309875 13.70340824 -13.1875 12.5625 C-12.66542969 11.92441406 -12.14335937 11.28632813 -11.60546875 10.62890625 C-10 9 -10 9 -7 8 C-6.67 7.01 -6.34 6.02 -6 5 C-4.12382302 3.15500602 -2.07262391 1.6316401 0 0 Z " fill="#A696AD" transform="translate(259,120)"/>
<path d="M0 0 C4.09575216 3.88571359 5.93959648 5.78923114 6.09765625 11.57421875 C6.09103244 12.94534658 6.07914198 14.31645717 6.0625 15.6875 C6.05798828 16.38939453 6.05347656 17.09128906 6.04882812 17.81445312 C6.03706927 19.54300538 6.01913454 21.27151365 6 23 C5.34 23 4.68 23 4 23 C3.67 24.65 3.34 26.3 3 28 C2.67 27.34 2.34 26.68 2 26 C2.30679687 25.29488281 2.61359375 24.58976562 2.9296875 23.86328125 C4.27526744 20.26360936 4.21906419 16.96815674 4.125 13.1875 C4.11597656 12.49462891 4.10695313 11.80175781 4.09765625 11.08789062 C4.07426157 9.39177605 4.03839641 7.69584129 4 6 C2.68 5.34 1.36 4.68 0 4 C0 2.68 0 1.36 0 0 Z " fill="#99739F" transform="translate(485,196)"/>
<path d="M0 0 C0.33 0.99 0.66 1.98 1 3 C1.66 3 2.32 3 3 3 C3 4.65 3 6.3 3 8 C3.66 8 4.32 8 5 8 C5 9.65 5 11.3 5 13 C5.66 13 6.32 13 7 13 C7 14.65 7 16.3 7 18 C7.66 18 8.32 18 9 18 C9 19.98 9 21.96 9 24 C4.41694242 17.12541363 0 8.34101332 0 0 Z " fill="#D8C5DC" transform="translate(393,167)"/>
<path d="M0 0 C1.58260327 3.16520654 0.10165944 6.06181101 -0.8125 9.3125 C-0.99103516 9.97701172 -1.16957031 10.64152344 -1.35351562 11.32617188 C-2.35688488 14.98828854 -3.50748805 18.50846753 -5 22 C-5.33 22 -5.66 22 -6 22 C-6.04254356 20.00045254 -6.04080783 17.99958364 -6 16 C-5.67 15.67 -5.34 15.34 -5 15 C-4.76924918 13.65252916 -4.58846937 12.29622435 -4.4375 10.9375 C-4.293125 9.638125 -4.14875 8.33875 -4 7 C-3.01 6.67 -2.02 6.34 -1 6 C-1.020625 5.195625 -1.04125 4.39125 -1.0625 3.5625 C-1 1 -1 1 0 0 Z " fill="#B395B8" transform="translate(344,203)"/>
<path d="M0 0 C3.0784706 4.6177059 4 6.23388893 4 12 C-2.93 12 -9.86 12 -17 12 C-16.67 11.34 -16.34 10.68 -16 10 C-10.06 10 -4.12 10 2 10 C1.34 8.02 0.68 6.04 0 4 C0 2.68 0 1.36 0 0 Z " fill="#C7ACCC" transform="translate(382,193)"/>
<path d="M0 0 C7.85879863 0.35224909 14.65062002 1.13498747 22 4 C22 4.33 22 4.66 22 5 C14.21199669 5.28320012 7.15627433 4.23186583 0 1 C0 0.67 0 0.34 0 0 Z " fill="#481A56" transform="translate(143,85)"/>
<path d="M0 0 C0.99 0.33 1.98 0.66 3 1 C3 6.28 3 11.56 3 17 C2.67 17 2.34 17 2 17 C-0.01167675 11.21642935 -0.22084624 6.09781001 0 0 Z " fill="#442552" transform="translate(228,167)"/>
<path d="M0 0 C0.93045933 2.55144824 1.08564091 3.74006478 0.22265625 6.359375 C-0.16019531 7.14828125 -0.54304687 7.9371875 -0.9375 8.75 C-1.50791016 9.94882813 -1.50791016 9.94882813 -2.08984375 11.171875 C-2.39019531 11.77515625 -2.69054687 12.3784375 -3 13 C-3.66 13 -4.32 13 -5 13 C-5.42161769 8.36220546 -4.06085642 5.12171284 -2 1 C-1.34 0.67 -0.68 0.34 0 0 Z " fill="#806D87" transform="translate(229,198)"/>
<path d="M0 0 C6.625 -0.25 6.625 -0.25 10 2 C8.35 2 6.7 2 5 2 C5 2.99 5 3.98 5 5 C4.154375 4.855625 3.30875 4.71125 2.4375 4.5625 C-1.03593149 3.9941203 -4.51445662 3.48797607 -8 3 C-8 2.67 -8 2.34 -8 2 C-5.36 1.67 -2.72 1.34 0 1 C0 0.67 0 0.34 0 0 Z " fill="#644B70" transform="translate(179,119)"/>
<path d="M0 0 C6.7186905 1.99613268 12.80734808 4.7291421 19 8 C15.90279155 8.87840996 14.09354597 8.99435406 11 8 C11 7.34 11 6.68 11 6 C9.68 6 8.36 6 7 6 C7 5.34 7 4.68 7 4 C6.030625 3.71125 5.06125 3.4225 4.0625 3.125 C1 2 1 2 0 0 Z " fill="#97859F" transform="translate(246,91)"/>
<path d="M0 0 C0.66 0.33 1.32 0.66 2 1 C1.030625 1.598125 0.06125 2.19625 -0.9375 2.8125 C-4.23052042 4.71127509 -4.23052042 4.71127509 -5 8 C-6.375 9.6875 -6.375 9.6875 -8 11 C-8.99 11 -9.98 11 -11 11 C-11.33 12.32 -11.66 13.64 -12 15 C-12.33 14.34 -12.66 13.68 -13 13 C-11.52830189 9.26415094 -11.52830189 9.26415094 -9 8 C-8.67 7.01 -8.34 6.02 -8 5 C-5.33862801 2.61877243 -3.4032423 1.1344141 0 0 Z " fill="#A583AC" transform="translate(436,155)"/>
<path d="M0 0 C6.32966418 0.56263682 12.21835667 2.34924657 18 5 C18.33 5.66 18.66 6.32 19 7 C16.69 6.67 14.38 6.34 12 6 C12 5.34 12 4.68 12 4 C11.30132812 3.96261719 10.60265625 3.92523438 9.8828125 3.88671875 C8.97273437 3.82097656 8.06265625 3.75523438 7.125 3.6875 C6.22007812 3.62949219 5.31515625 3.57148437 4.3828125 3.51171875 C2 3 2 3 0 0 Z " fill="#BFA5C4" transform="translate(181,113)"/>
<path d="M0 0 C0.33 0 0.66 0 1 0 C1 2.64 1 5.28 1 8 C0.34 8 -0.32 8 -1 8 C-1 9.65 -1 11.3 -1 13 C-1.66 13 -2.32 13 -3 13 C-3 14.65 -3 16.3 -3 18 C-3.66 18 -4.32 18 -5 18 C-4.51030705 11.38914524 -2.66557258 6.05022986 0 0 Z " fill="#C3A7C7" transform="translate(371,183)"/>
<path d="M0 0 C0.66 0 1.32 0 2 0 C2.508783 1.55966218 3.00663469 3.12289241 3.5 4.6875 C3.7784375 5.55761719 4.056875 6.42773438 4.34375 7.32421875 C4.99850805 9.99391677 5.11831495 12.26396684 5 15 C4.67 13.68 4.34 12.36 4 11 C3.34 11 2.68 11 2 11 C2 9.68 2 8.36 2 7 C1.34 7 0.68 7 0 7 C-0.38133299 5.0085944 -0.71325582 3.00720923 -1 1 C-0.67 0.67 -0.34 0.34 0 0 Z " fill="#3A1A4B" transform="translate(223,152)"/>
<path d="M0 0 C0.99 0 1.98 0 3 0 C5.67927341 4.01891012 5.15601248 6.24161923 5 11 C4.34 11 3.68 11 3 11 C0 4.5 0 4.5 0 0 Z " fill="#EE657F" transform="translate(62,126)"/>
<path d="M0 0 C4.38889325 0.66498383 7.9811485 2.18757677 12 4 C12 4.66 12 5.32 12 6 C13.4540625 6.433125 13.4540625 6.433125 14.9375 6.875 C18 8 18 8 19 10 C16.03 9.505 16.03 9.505 13 9 C13 8.34 13 7.68 13 7 C11.68 7 10.36 7 9 7 C8.34 6.01 7.68 5.02 7 4 C4.69855891 2.92863949 2.3659787 1.92010283 0 1 C0 0.67 0 0.34 0 0 Z " fill="#917F9A" transform="translate(180,57)"/>
<path d="M0 0 C0.66 0 1.32 0 2 0 C2.33575056 2.43718935 2.66869285 4.87470615 3 7.3125 C3.09539062 8.00279297 3.19078125 8.69308594 3.2890625 9.40429688 C3.68027442 12.29647073 4 15.07764977 4 18 C1.03688631 15.03688631 0.08595671 12.27387844 -0.1953125 8.10546875 C-0.17210937 7.14253906 -0.14890625 6.17960938 -0.125 5.1875 C-0.10695313 4.21167969 -0.08890625 3.23585937 -0.0703125 2.23046875 C-0.04710937 1.49441406 -0.02390625 0.75835937 0 0 Z " fill="#D8C7DC" transform="translate(420,172)"/>
<path d="M0 0 C1.485 0.99 1.485 0.99 3 2 C3 2.66 3 3.32 3 4 C3.66 4 4.32 4 5 4 C8.07692308 10.4 8.07692308 10.4 7.6875 13.4375 C7.460625 13.953125 7.23375 14.46875 7 15 C6.67 13.35 6.34 11.7 6 10 C5.01 10 4.02 10 3 10 C2.01 6.7 1.02 3.4 0 0 Z " fill="#8C6D95" transform="translate(190,154)"/>
<path d="M0 0 C0.33 0 0.66 0 1 0 C0.85761163 2.04190981 0.71092972 4.08352045 0.5625 6.125 C0.48128906 7.26195312 0.40007812 8.39890625 0.31640625 9.5703125 C0.02269035 12.7540478 -0.43124313 15.85510907 -1 19 C-1.33 19 -1.66 19 -2 19 C-3.02930907 12.51535284 -3.04859613 7.28610319 -1 1 C-0.67 0.67 -0.34 0.34 0 0 Z " fill="#CD1D4B" transform="translate(168,155)"/>
<path d="M0 0 C5.94074887 1.00332648 10.20186518 2.30912706 15 6 C12.39417629 6.93065133 11.35801776 7.14917407 8.75 6.0625 C8.1725 5.711875 7.595 5.36125 7 5 C7 4.34 7 3.68 7 3 C6.030625 2.87625 5.06125 2.7525 4.0625 2.625 C3.051875 2.41875 2.04125 2.2125 1 2 C0.67 1.34 0.34 0.68 0 0 Z " fill="#B9AABE" transform="translate(229,82)"/>
<path d="M0 0 C0.66 0.99 1.32 1.98 2 3 C1.34 4.32 0.68 5.64 0 7 C-0.66 7 -1.32 7 -2 7 C-2.33 7.99 -2.66 8.98 -3 10 C-3.99 10 -4.98 10 -6 10 C-5.75 8.125 -5.75 8.125 -5 6 C-3.66666667 5.33333333 -2.33333333 4.66666667 -1 4 C-0.19471111 1.94999129 -0.19471111 1.94999129 0 0 Z " fill="#E7E4E8" transform="translate(217,219)"/>
<path d="M0 0 C0.98291016 0.00322266 1.96582031 0.00644531 2.97851562 0.00976562 C4.51475586 0.02233398 4.51475586 0.02233398 6.08203125 0.03515625 C7.11779297 0.03966797 8.15355469 0.04417969 9.22070312 0.04882812 C11.77870391 0.06061615 14.33658858 0.0770711 16.89453125 0.09765625 C16.89453125 0.42765625 16.89453125 0.75765625 16.89453125 1.09765625 C16.27932617 1.11223877 15.66412109 1.12682129 15.03027344 1.1418457 C12.23440271 1.21646202 9.43970838 1.31307605 6.64453125 1.41015625 C5.67644531 1.43271484 4.70835937 1.45527344 3.7109375 1.47851562 C2.30908203 1.53168945 2.30908203 1.53168945 0.87890625 1.5859375 C0.02006836 1.61212158 -0.83876953 1.63830566 -1.72363281 1.6652832 C-4.5360826 2.17582529 -5.97040115 3.2413576 -8.10546875 5.09765625 C-8.10546875 3.77765625 -8.10546875 2.45765625 -8.10546875 1.09765625 C-5.10530963 0.09760321 -3.13123119 -0.0180996 0 0 Z " fill="#6C3576" transform="translate(370.10546875,154.90234375)"/>
<path d="M0 0 C2.97903734 2.97903734 4 5.80285329 4 10 C4.66 10 5.32 10 6 10 C6 11.65 6 13.3 6 15 C5.67 14.34 5.34 13.68 5 13 C4.01 12.67 3.02 12.34 2 12 C0.65743047 7.68964518 0 4.52218352 0 0 Z " fill="#99749F" transform="translate(399,186)"/>
<path d="M0 0 C0.99 0.33 1.98 0.66 3 1 C3 1.99 3 2.98 3 4 C3.66 4 4.32 4 5 4 C5 5.32 5 6.64 5 8 C5.66 8 6.32 8 7 8 C7.33 10.64 7.66 13.28 8 16 C5.5615972 13.5615972 4.41079629 11.0864312 2.875 8 C2.33617188 6.9275 1.79734375 5.855 1.2421875 4.75 C0 2 0 2 0 0 Z " fill="#EB5D77" transform="translate(69,143)"/>
<path d="M0 0 C1.98 1.65 3.96 3.3 6 5 C5.67 5.66 5.34 6.32 5 7 C4.34 7 3.68 7 3 7 C2.67 7.66 2.34 8.32 2 9 C0.35 7.02 -1.3 5.04 -3 3 C-1.68 3.33 -0.36 3.66 1 4 C0.67 2.68 0.34 1.36 0 0 Z " fill="#CCC2D1" transform="translate(218,134)"/>
<path d="M0 0 C1.65 0 3.3 0 5 0 C5 2.31 5 4.62 5 7 C3.68 7.33 2.36 7.66 1 8 C0.67 5.36 0.34 2.72 0 0 Z " fill="#5A1E5B" transform="translate(174,252)"/>
<path d="M0 0 C1.485 0.99 1.485 0.99 3 2 C3 2.99 3 3.98 3 5 C3.66 5 4.32 5 5 5 C5 6.32 5 7.64 5 9 C5.66 9 6.32 9 7 9 C7.33 11.64 7.66 14.28 8 17 C7.34 16.67 6.68 16.34 6 16 C6 14.02 6 12.04 6 10 C5.01 9.67 4.02 9.34 3 9 C2.05078125 6.93359375 2.05078125 6.93359375 1.3125 4.4375 C1.06113281 3.61121094 0.80976563 2.78492188 0.55078125 1.93359375 C0.36902344 1.29550781 0.18726563 0.65742188 0 0 Z " fill="#715A7C" transform="translate(220,154)"/>
<path d="M0 0 C-0.99 0 -1.98 0 -3 0 C-3 0.66 -3 1.32 -3 2 C-6.64793184 3.27253436 -10.1936543 4.32829194 -14 5 C-14 5.66 -14 6.32 -14 7 C-14.66 6.67 -15.32 6.34 -16 6 C-11.97115039 1.13180672 -6.24917557 -2.05051073 0 0 Z " fill="#936A9A" transform="translate(281,156)"/>
<path d="M0 0 C5.61 0 11.22 0 17 0 C17 0.33 17 0.66 17 1 C16.14535156 1.04898438 15.29070312 1.09796875 14.41015625 1.1484375 C13.30542969 1.22320312 12.20070312 1.29796875 11.0625 1.375 C9.96035156 1.44460937 8.85820312 1.51421875 7.72265625 1.5859375 C6.37494141 1.79089844 6.37494141 1.79089844 5 2 C4.67 2.66 4.34 3.32 4 4 C2.68 3.34 1.36 2.68 0 2 C0 1.34 0 0.68 0 0 Z " fill="#E55B76" transform="translate(156,251)"/>
<path d="M0 0 C3.4375 0.8125 3.4375 0.8125 7 2 C7.33 2.99 7.66 3.98 8 5 C8.99 5.33 9.98 5.66 11 6 C10.67 6.99 10.34 7.98 10 9 C9.67 8.01 9.34 7.02 9 6 C8.01 6 7.02 6 6 6 C6 5.34 6 4.68 6 4 C4.02 3.34 2.04 2.68 0 2 C0 1.34 0 0.68 0 0 Z " fill="#A493AB" transform="translate(265,100)"/>
<path d="M0 0 C2 2 2 2 2.125 5.125 C2.08375 6.07375 2.0425 7.0225 2 8 C2.66 8 3.32 8 4 8 C4 9.32 4 10.64 4 12 C3.01 11.67 2.02 11.34 1 11 C-0.20272819 8.59454362 -0.10071472 7.05003047 -0.0625 4.375 C-0.05347656 3.55773437 -0.04445312 2.74046875 -0.03515625 1.8984375 C-0.02355469 1.27195313 -0.01195312 0.64546875 0 0 Z " fill="#AF2052" transform="translate(173,252)"/>
<path d="M0 0 C0.66 0.33 1.32 0.66 2 1 C-1.88309282 4.64775386 -4.71201818 5.58525633 -10 6 C-10 5.01 -10 4.02 -10 3 C-9.04287109 2.80083984 -9.04287109 2.80083984 -8.06640625 2.59765625 C-7.24011719 2.42105469 -6.41382813 2.24445313 -5.5625 2.0625 C-4.73878906 1.88847656 -3.91507812 1.71445313 -3.06640625 1.53515625 C-1.02338796 1.19247006 -1.02338796 1.19247006 0 0 Z " fill="#8A5E92" transform="translate(479,230)"/>
<path d="M0 0 C0.99 0 1.98 0 3 0 C1.515 6.435 1.515 6.435 0 13 C-0.66 13 -1.32 13 -2 13 C-1.34 8.71 -0.68 4.42 0 0 Z " fill="#BC9FC2" transform="translate(359,158)"/>
<path d="M0 0 C-0.66 1.32 -1.32 2.64 -2 4 C-2.66 4 -3.32 4 -4 4 C-4 4.66 -4 5.32 -4 6 C-6.97 5.505 -6.97 5.505 -10 5 C-8.28489314 1.56978628 -3.75681361 0 0 0 Z " fill="#B6ADBC" transform="translate(187,218)"/>
<path d="M0 0 C5.37992836 0.33990833 9.53273547 0.68557793 14 4 C11.01316063 5.49341969 9.04839022 4.40648676 5.875 3.5625 C4.77929688 3.27503906 3.68359375 2.98757812 2.5546875 2.69140625 C1.71164062 2.46324219 0.86859375 2.23507813 0 2 C0 1.34 0 0.68 0 0 Z " fill="#D2BFD6" transform="translate(454,204)"/>
<path d="M0 0 C3.375 -0.1875 3.375 -0.1875 7 0 C7.66 0.99 8.32 1.98 9 3 C6.23723823 2.47731534 3.6739124 1.89130413 1 1 C1 2.65 1 4.3 1 6 C0.01 6.495 0.01 6.495 -1 7 C-0.67 4.69 -0.34 2.38 0 0 Z " fill="#AD9FB5" transform="translate(142,38)"/>
<path d="M0 0 C0.66 0 1.32 0 2 0 C4.09230769 4.43076923 4.09230769 4.43076923 3.625 7.3125 C3.41875 7.869375 3.2125 8.42625 3 9 C2.71125 8.195625 2.4225 7.39125 2.125 6.5625 C1.26737432 3.8673532 1.26737432 3.8673532 -1 3 C-1.33 4.32 -1.66 5.64 -2 7 C-2.33 6.34 -2.66 5.68 -3 5 C-1.6875 2.375 -1.6875 2.375 0 0 Z " fill="#BFA6C4" transform="translate(375,176)"/>
<path d="M0 0 C0.99 0 1.98 0 3 0 C4.20568053 4.67201205 4.09382426 9.21496292 4 14 C3.67 14 3.34 14 3 14 C2.86722656 13.24074219 2.73445313 12.48148438 2.59765625 11.69921875 C2.42105469 10.70535156 2.24445313 9.71148437 2.0625 8.6875 C1.88847656 7.70136719 1.71445312 6.71523437 1.53515625 5.69921875 C1.04253153 2.91810787 1.04253153 2.91810787 0 0 Z " fill="#D1BED5" transform="translate(327,169)"/>
<path d="M0 0 C2.64 0 5.28 0 8 0 C8 0.66 8 1.32 8 2 C9.98 2 11.96 2 14 2 C14 2.33 14 2.66 14 3 C8.78020872 3.1799928 4.92737019 2.97094808 0 1 C0 0.67 0 0.34 0 0 Z " fill="#B091B6" transform="translate(123,81)"/>
<path d="M0 0 C0 1.98 0 3.96 0 6 C-3.16115776 4.63016497 -3.9927092 4.0109362 -6 1 C-1.125 0 -1.125 0 0 0 Z " fill="#E93051" transform="translate(114,205)"/>
<path d="M0 0 C0.66 0.33 1.32 0.66 2 1 C0.71937515 2.7074998 -0.61767557 4.37373596 -2 6 C-2.66 6 -3.32 6 -4 6 C-4.33 6.66 -4.66 7.32 -5 8 C-5 6.68 -5 5.36 -5 4 C-2.5 1.75 -2.5 1.75 0 0 Z " fill="#E7D9EA" transform="translate(286,171)"/>
<path d="M0 0 C1.32 0.33 2.64 0.66 4 1 C1.03 3.475 1.03 3.475 -2 6 C-2.66 5.67 -3.32 5.34 -4 5 C-3.34 4.01 -2.68 3.02 -2 2 C-1.34 2 -0.68 2 0 2 C0 1.34 0 0.68 0 0 Z " fill="#683271" transform="translate(267,161)"/>
<path d="M0 0 C0.33 0 0.66 0 1 0 C1.36923077 5.41538462 1.36923077 5.41538462 -0.5 8.375 C-0.995 8.91125 -1.49 9.4475 -2 10 C-1.85950482 8.52031676 -1.71245174 7.04125484 -1.5625 5.5625 C-1.48128906 4.73878906 -1.40007812 3.91507813 -1.31640625 3.06640625 C-1 1 -1 1 0 0 Z " fill="#805589" transform="translate(337,225)"/>
<path d="M0 0 C0.33 0.66 0.66 1.32 1 2 C1.66 2 2.32 2 3 2 C2.1875 3.9375 2.1875 3.9375 1 6 C0.01 6.33 -0.98 6.66 -2 7 C-1.34 4.69 -0.68 2.38 0 0 Z " fill="#C8C1CC" transform="translate(219,216)"/>
<path d="M0 0 C2.35448165 2.55068845 2.98327924 3.71017358 3.1875 7.25 C3.125625 8.1575 3.06375 9.065 3 10 C2.34 9.67 1.68 9.34 1 9 C0.5859375 6.93359375 0.5859375 6.93359375 0.375 4.4375 C0.30023438 3.61121094 0.22546875 2.78492188 0.1484375 1.93359375 C0.09945313 1.29550781 0.05046875 0.65742188 0 0 Z " fill="#D5C0D9" transform="translate(390,157)"/>
<path d="M0 0 C3.36720387 1.39332574 4.9859524 2.9789286 7 6 C5.35 5.67 3.7 5.34 2 5 C2 4.34 2 3.68 2 3 C1.34 3 0.68 3 0 3 C0 2.01 0 1.02 0 0 Z " fill="#8A5D92" transform="translate(183,148)"/>
<path d="M0 0 C3.34373475 0.55728913 6.03312999 1.35173889 9 3 C5.93109813 4.53445094 3.29905734 3.54984289 0 3 C0 2.01 0 1.02 0 0 Z " fill="#835388" transform="translate(173,144)"/>
<path d="M0 0 C1.98 0.99 3.96 1.98 6 3 C5.67 3.66 5.34 4.32 5 5 C4.34 4.67 3.68 4.34 3 4 C2.67 4.99 2.34 5.98 2 7 C1.34 4.69 0.68 2.38 0 0 Z " fill="#E2DBE5" transform="translate(220,139)"/>
<path d="M0 0 C1.4835001 0.42257276 2.96176424 0.86356322 4.4375 1.3125 C5.67306641 1.67794922 5.67306641 1.67794922 6.93359375 2.05078125 C7.61550781 2.36402344 8.29742187 2.67726562 9 3 C9.33 3.99 9.66 4.98 10 6 C9.01 6 8.02 6 7 6 C7 5.34 7 4.68 7 4 C6.030625 3.71125 5.06125 3.4225 4.0625 3.125 C1 2 1 2 0 0 Z " fill="#98869F" transform="translate(189,126)"/>
<path d="M0 0 C0 0.66 0 1.32 0 2 C0.33 2.66 0.66 3.32 1 4 C-1.02045442 3.39816251 -3.02111039 2.72693904 -5 2 C-5.33 1.34 -5.66 0.68 -6 0 C-3.50907189 -1.24546405 -2.58919267 -0.7767578 0 0 Z " fill="#D7CDDA" transform="translate(193,118)"/>
<path d="M0 0 C-0.33 1.98 -0.66 3.96 -1 6 C-1.33 4.68 -1.66 3.36 -2 2 C-3.98 2 -5.96 2 -8 2 C-8 1.67 -8 1.34 -8 1 C-5.23735711 0.40267181 -2.83967231 0 0 0 Z " fill="#6A4B72" transform="translate(181,250)"/>
<path d="M0 0 C0.33 0 0.66 0 1 0 C1 2.97 1 5.94 1 9 C1.66 9.33 2.32 9.66 3 10 C1.68 10.33 0.36 10.66 -1 11 C-0.67 7.37 -0.34 3.74 0 0 Z " fill="#5F326B" transform="translate(180,205)"/>
<path d="M0 0 C2 1 2 1 3.1875 3.8125 C3.96421451 6.85961076 4.10096399 8.13749363 3 11 C0.43383368 7.15075052 0.44902324 4.5650696 0 0 Z " fill="#794C81" transform="translate(391,166)"/>
<path d="M0 0 C0.99 0 1.98 0 3 0 C3.33 2.31 3.66 4.62 4 7 C1 5 1 5 0.3125 2.375 C0.209375 1.59125 0.10625 0.8075 0 0 Z " fill="#916A98" transform="translate(323,164)"/>
<path d="M0 0 C0.99 0.33 1.98 0.66 3 1 C3.33 2.65 3.66 4.3 4 6 C2.68 5.67 1.36 5.34 0 5 C0 3.35 0 1.7 0 0 Z " fill="#EDECF0" transform="translate(215,132)"/>
<path d="M0 0 C0.66 0 1.32 0 2 0 C1.29445932 3.66881155 -0.27735506 6.70450534 -2 10 C-2.6875 8.375 -2.6875 8.375 -3 6 C-1.5625 2.75 -1.5625 2.75 0 0 Z " fill="#441853" transform="translate(225,103)"/>
</svg>
